<svg width="157" height="48" viewBox="0 0 157 48" fill="none" xmlns="http://www.w3.org/2000/svg">
<path d="M150.968 47.1166H5.80645C2.6129 47.1166 0 44.4663 0 41.227V5.88957C0 2.65031 2.6129 0 5.80645 0H150.968C154.161 0 156.774 2.65031 156.774 5.88957V41.227C156.774 44.4663 154.161 47.1166 150.968 47.1166Z" fill="#357D4C"/>
<path d="M54.4787 12.828C54.4787 13.8174 54.1884 14.6066 53.6078 15.1838C52.9574 15.8788 52.0981 16.2321 51.0529 16.2321C50.0426 16.2321 49.1948 15.8788 48.4865 15.172C47.7781 14.4653 47.4297 13.5818 47.4297 12.5453C47.4297 11.4969 47.7781 10.6253 48.4865 9.91852C49.1948 9.21177 50.0426 8.8584 51.0529 8.8584C51.5523 8.8584 52.0284 8.95263 52.4813 9.15288C52.9342 9.35312 53.2942 9.61226 53.5729 9.94208L52.9574 10.5664C52.4929 10.0128 51.8658 9.73005 51.0529 9.73005C50.3213 9.73005 49.6826 9.9892 49.1484 10.5193C48.6142 11.0375 48.3471 11.7207 48.3471 12.557C48.3471 13.3934 48.6142 14.0766 49.1484 14.5948C49.6826 15.1131 50.3213 15.384 51.0529 15.384C51.831 15.384 52.4813 15.1249 53.0039 14.5948C53.3407 14.2532 53.5381 13.7703 53.5845 13.1578H51.0529V12.3097H54.4323C54.4555 12.4864 54.4787 12.6631 54.4787 12.828Z" fill="white" stroke="white" stroke-width="0.2" stroke-miterlimit="10"/>
<path d="M59.8323 9.88313H56.6619V12.1212H59.5187V12.9693H56.6619V15.2073H59.8323V16.079H55.7678V9.01147H59.8323V9.88313V9.88313Z" fill="white" stroke="white" stroke-width="0.2" stroke-miterlimit="10"/>
<path d="M63.6065 16.079H62.7123V9.88313H60.7613V9.01147H65.5458V9.88313H63.5948V16.079H63.6065Z" fill="white" stroke="white" stroke-width="0.2" stroke-miterlimit="10"/>
<path d="M69.0181 16.079V9.01147H69.9123V16.079H69.0181Z" fill="white" stroke="white" stroke-width="0.2" stroke-miterlimit="10"/>
<path d="M73.8839 16.079H72.9897V9.88313H71.0387V9.01147H75.8232V9.88313H73.8723V16.079H73.8839Z" fill="white" stroke="white" stroke-width="0.2" stroke-miterlimit="10"/>
<path d="M84.8929 15.1602C84.2078 15.8788 83.36 16.2321 82.3381 16.2321C81.3161 16.2321 80.4684 15.8788 79.7832 15.1602C79.0981 14.4417 78.7613 13.5701 78.7613 12.5453C78.7613 11.5205 79.0981 10.637 79.7832 9.9303C80.4684 9.21177 81.3161 8.8584 82.3381 8.8584C83.3484 8.8584 84.1961 9.21177 84.8929 9.9303C85.5781 10.6488 85.9265 11.5205 85.9265 12.5453C85.9149 13.5818 85.5781 14.4535 84.8929 15.1602ZM80.4452 14.5713C80.9561 15.1013 81.5949 15.3605 82.3381 15.3605C83.0813 15.3605 83.72 15.1013 84.231 14.5713C84.742 14.0412 85.009 13.3698 85.009 12.5453C85.009 11.7207 84.7536 11.0493 84.231 10.5193C83.72 9.9892 83.0813 9.73005 82.3381 9.73005C81.5949 9.73005 80.9561 9.9892 80.4452 10.5193C79.9342 11.0493 79.6671 11.7207 79.6671 12.5453C79.6671 13.3698 79.9342 14.0412 80.4452 14.5713Z" fill="white" stroke="white" stroke-width="0.2" stroke-miterlimit="10"/>
<path d="M87.1807 16.079V9.01147H88.2723L91.6632 14.5123H91.6981L91.6632 13.146V9.01147H92.5574V16.079H91.6284L88.0865 10.319H88.0516L88.0865 11.6853V16.079H87.1807Z" fill="white" stroke="white" stroke-width="0.2" stroke-miterlimit="10"/>
<path d="M78.5407 26.3858C75.8116 26.3858 73.582 28.4943 73.582 31.3919C73.582 34.2778 75.8116 36.3981 78.5407 36.3981C81.2697 36.3981 83.4994 34.2778 83.4994 31.3919C83.4994 28.4943 81.2697 26.3858 78.5407 26.3858ZM78.5407 34.431C77.0426 34.431 75.7536 33.1824 75.7536 31.3919C75.7536 29.5897 77.0426 28.3529 78.5407 28.3529C80.0387 28.3529 81.3278 29.5897 81.3278 31.3919C81.3278 33.1824 80.0271 34.431 78.5407 34.431ZM67.7174 26.3858C64.9884 26.3858 62.7587 28.4943 62.7587 31.3919C62.7587 34.2778 64.9884 36.3981 67.7174 36.3981C70.4465 36.3981 72.6762 34.2778 72.6762 31.3919C72.6762 28.4943 70.4465 26.3858 67.7174 26.3858ZM67.7174 34.431C66.2194 34.431 64.9303 33.1824 64.9303 31.3919C64.9303 29.5897 66.2194 28.3529 67.7174 28.3529C69.2155 28.3529 70.5045 29.5897 70.5045 31.3919C70.5045 33.1824 69.2155 34.431 67.7174 34.431ZM54.8503 27.9289V30.0491H59.8671C59.7162 31.2388 59.3213 32.1223 58.7291 32.723C57.9974 33.4651 56.8594 34.2778 54.862 34.2778C51.7729 34.2778 49.3574 31.7571 49.3574 28.6238C49.3574 25.4906 51.7729 22.9699 54.862 22.9699C56.5226 22.9699 57.742 23.6295 58.6362 24.4894L60.111 22.9934C58.8568 21.7802 57.1962 20.8496 54.8503 20.8496C50.6233 20.8496 47.0697 24.3362 47.0697 28.6356C47.0697 32.9232 50.6233 36.4216 54.8503 36.4216C57.1381 36.4216 58.8568 35.6678 60.2039 34.2425C61.5858 32.8408 62.0155 30.8619 62.0155 29.2717C62.0155 28.777 61.9807 28.3176 61.8994 27.9407H54.8503V27.9289ZM107.468 29.578C107.062 28.4589 105.808 26.3858 103.241 26.3858C100.698 26.3858 98.5845 28.4118 98.5845 31.3919C98.5845 34.1954 100.675 36.3981 103.485 36.3981C105.75 36.3981 107.062 34.9964 107.596 34.1836L105.912 33.041C105.355 33.8773 104.588 34.431 103.485 34.431C102.382 34.431 101.592 33.9127 101.093 32.9115L107.701 30.1434L107.468 29.578ZM100.733 31.2506C100.675 29.3188 102.208 28.3294 103.311 28.3294C104.17 28.3294 104.902 28.7652 105.146 29.3895L100.733 31.2506ZM95.3678 36.1036H97.5394V21.3797H95.3678V36.1036ZM91.8142 27.5048H91.7329C91.2452 26.9159 90.3162 26.3858 89.1316 26.3858C86.6581 26.3858 84.3936 28.5885 84.3936 31.4155C84.3936 34.2189 86.6581 36.4099 89.1316 36.4099C90.3045 36.4099 91.2452 35.8798 91.7329 35.2673H91.8026V35.9858C91.8026 37.9058 90.7923 38.9306 89.1665 38.9306C87.8426 38.9306 87.0181 37.9647 86.6813 37.1519L84.7884 37.9529C85.3342 39.284 86.7742 40.9095 89.1665 40.9095C91.7097 40.9095 93.8581 39.39 93.8581 35.6913V26.6921H91.8026V27.5048H91.8142ZM89.3174 34.431C87.8194 34.431 86.5652 33.1588 86.5652 31.4155C86.5652 29.6486 87.8194 28.3647 89.3174 28.3647C90.7923 28.3647 91.9536 29.6604 91.9536 31.4155C91.9652 33.1588 90.8039 34.431 89.3174 34.431ZM117.641 21.3797H112.45V36.1036H114.622V30.5203H117.653C120.057 30.5203 122.414 28.7534 122.414 25.95C122.414 23.1465 120.034 21.3797 117.641 21.3797ZM117.688 28.4707H114.61V23.4175H117.688C119.314 23.4175 120.231 24.7838 120.231 25.9382C120.231 27.0926 119.314 28.4707 117.688 28.4707ZM131.089 26.3622C129.521 26.3622 127.896 27.069 127.222 28.6121L129.15 29.4248C129.556 28.6121 130.323 28.3411 131.124 28.3411C132.239 28.3411 133.388 29.0243 133.4 30.2376V30.3907C133.005 30.1669 132.169 29.8253 131.136 29.8253C129.057 29.8253 126.955 30.9797 126.955 33.1353C126.955 35.1024 128.65 36.3745 130.555 36.3745C132.006 36.3745 132.819 35.7149 133.319 34.9375H133.388V36.08H135.479V30.4378C135.49 27.8229 133.563 26.3622 131.089 26.3622ZM130.822 34.431C130.114 34.431 129.126 34.0658 129.126 33.1824C129.126 32.0516 130.357 31.6157 131.426 31.6157C132.378 31.6157 132.831 31.8278 133.4 32.1105C133.237 33.4651 132.076 34.431 130.822 34.431ZM143.108 26.6803L140.623 33.0646H140.554L137.976 26.6803H135.641L139.508 35.6089L137.302 40.5679H139.566L145.524 26.6803H143.108ZM123.599 36.1036H125.77V21.3797H123.599V36.1036Z" fill="white"/>
<path d="M11.5342 9.64764C11.1974 10.0128 11 10.5782 11 11.2967V37.3522C11 38.0825 11.1974 38.6479 11.5342 39.0013L11.6155 39.0837L26.0039 24.5011V24.3245V24.1478L11.6155 9.56519L11.5342 9.64764Z" fill="white"/>
<path d="M31.3082 29.3661L26.5121 24.5014V24.3247V24.148L31.3082 19.2832L31.4127 19.3421L37.0914 22.6167C38.7172 23.5473 38.7172 25.0785 37.0914 26.0209L31.4127 29.2955L31.3082 29.3661Z" fill="white"/>
<path d="M30.9045 30.4732L26.0039 25.5024L11.5342 40.1793C12.0684 40.7564 12.951 40.8271 13.9497 40.2499L30.9045 30.4732Z" fill="white"/>
<path d="M30.9045 18.1759L13.9381 8.39916C12.9394 7.82199 12.0568 7.89266 11.5226 8.46984L26.0039 23.1467L30.9045 18.1759Z" fill="white"/>
</svg>
