<svg width="251" height="94" viewBox="0 0 251 94" fill="none" xmlns="http://www.w3.org/2000/svg">
<path d="M42.2859 76.9626C41.7925 76.9626 41.311 76.9565 40.8215 76.9458C39.8074 76.933 38.7957 76.8476 37.7947 76.6903C36.8613 76.5348 35.9571 76.2455 35.1119 75.8319C34.2744 75.4218 33.5106 74.8841 32.8496 74.2393C32.1791 73.6021 31.6209 72.863 31.1971 72.0514C30.7686 71.2345 30.472 70.3589 30.3177 69.4551C30.1512 68.484 30.061 67.502 30.0481 66.5176C30.0379 66.1872 30.0244 65.0871 30.0244 65.0871V28.8962C30.0244 28.8962 30.0387 27.813 30.0482 27.4948C30.0606 26.512 30.1502 25.5315 30.3163 24.5619C30.4708 23.6556 30.7676 22.7775 31.1963 21.9579C31.6186 21.1469 32.1737 20.4073 32.8402 19.7678C33.5059 19.1222 34.2722 18.5817 35.1111 18.1659C35.9543 17.7537 36.8569 17.4664 37.7884 17.3138C38.7927 17.1548 39.8079 17.0689 40.8255 17.0567L42.2867 17.0376H208.705L210.184 17.0575C211.192 17.0691 212.198 17.1542 213.193 17.3122C214.134 17.4668 215.046 17.7561 215.899 18.1705C217.58 19.0084 218.947 20.3341 219.81 21.9617C220.232 22.7756 220.524 23.6466 220.677 24.545C220.845 25.5226 220.939 26.5108 220.958 27.5017C220.963 27.9454 220.963 28.4219 220.963 28.8962C220.976 29.4837 220.976 30.0429 220.976 30.6067V63.3949C220.976 63.9641 220.976 64.5195 220.963 65.0794C220.963 65.5889 220.963 66.0556 220.956 66.536C220.938 67.5091 220.845 68.4797 220.68 69.4398C220.529 70.3501 220.234 71.2325 219.805 72.0561C219.378 72.8589 218.823 73.5915 218.161 74.227C217.499 74.8753 216.734 75.4162 215.895 75.829C215.044 76.2457 214.133 76.5361 213.193 76.6903C212.193 76.8485 211.181 76.9339 210.167 76.9458C209.692 76.9565 209.196 76.9626 208.713 76.9626L206.958 76.9657L42.2859 76.9626Z" fill="#357D4C"/>
<path d="M68.7203 47.4712C68.7377 46.1636 69.0967 44.8815 69.7639 43.7441C70.4311 42.6068 71.3849 41.6512 72.5364 40.9663C71.8049 39.9556 70.8398 39.1238 69.7179 38.537C68.596 37.9502 67.348 37.6245 66.0733 37.586C63.354 37.3098 60.7178 39.1602 59.3321 39.1602C57.9196 39.1602 55.7861 37.6134 53.4886 37.6591C52.0026 37.7056 50.5543 38.1236 49.2849 38.8726C48.0156 39.6215 46.9684 40.6758 46.2454 41.9328C43.1135 47.1786 45.4496 54.8883 48.4496 59.1286C49.9506 61.205 51.7048 63.5244 54.0002 63.4421C56.2463 63.352 57.0852 62.0564 59.7965 62.0564C62.4826 62.0564 63.2697 63.4421 65.6116 63.3898C68.0218 63.352 69.5404 61.3042 70.9887 59.2082C72.0672 57.7287 72.897 56.0935 73.4476 54.3633C72.0473 53.7903 70.8523 52.8312 70.0117 51.6056C69.1711 50.38 68.7219 48.9421 68.7203 47.4712Z" fill="white"/>
<path d="M64.2968 34.7972C65.611 33.271 66.2584 31.3092 66.1016 29.3286C64.0939 29.5326 62.2393 30.461 60.9074 31.9287C60.2562 32.6457 59.7574 33.4798 59.4397 34.3834C59.1219 35.287 58.9913 36.2424 59.0553 37.1948C60.0596 37.2048 61.053 36.9943 61.961 36.579C62.8689 36.1637 63.6675 35.5545 64.2968 34.7972Z" fill="white"/>
<path d="M97.1131 58.1857H89.448L87.6073 63.4441H84.3607L91.6209 43.9893H94.994L102.254 63.4441H98.9522L97.1131 58.1857ZM90.2419 55.7592H96.3177L93.3225 47.2251H93.2387L90.2419 55.7592Z" fill="white"/>
<path d="M117.934 56.3528C117.934 60.7605 115.495 63.5925 111.815 63.5925C110.883 63.6396 109.956 63.4319 109.14 62.993C108.324 62.5541 107.653 61.9019 107.202 61.1109H107.133V68.1364H104.123V49.2599H107.036V51.6191H107.092C107.563 50.8319 108.246 50.183 109.068 49.7414C109.89 49.2999 110.82 49.0822 111.76 49.1115C115.481 49.1115 117.934 51.9572 117.934 56.3528ZM114.841 56.3528C114.841 53.4811 113.307 51.5931 110.966 51.5931C108.667 51.5931 107.12 53.5208 107.12 56.3528C107.12 59.2107 108.667 61.1247 110.966 61.1247C113.307 61.1247 114.841 59.2505 114.841 56.3528Z" fill="white"/>
<path d="M134.07 56.3527C134.07 60.7605 131.632 63.5925 127.952 63.5925C127.02 63.6396 126.093 63.4319 125.277 62.993C124.461 62.5541 123.79 61.9018 123.339 61.1109H123.269V68.1364H120.26V49.2599H123.173V51.6191H123.228C123.699 50.8319 124.382 50.183 125.204 49.7414C126.026 49.2999 126.957 49.0822 127.897 49.1115C131.618 49.1115 134.07 51.9572 134.07 56.3527ZM130.977 56.3527C130.977 53.481 129.443 51.5931 127.103 51.5931C124.803 51.5931 123.257 53.5208 123.257 56.3527C123.257 59.2107 124.803 61.1247 127.103 61.1247C129.443 61.1247 130.977 59.2505 130.977 56.3527H130.977Z" fill="white"/>
<path d="M144.735 58.0234C144.958 59.9527 146.896 61.2194 149.543 61.2194C152.079 61.2194 153.904 59.9526 153.904 58.2131C153.904 56.703 152.804 55.7988 150.198 55.1792L147.591 54.5718C143.899 53.7089 142.185 52.0382 142.185 49.3271C142.185 45.9704 145.208 43.6648 149.502 43.6648C153.751 43.6648 156.664 45.9704 156.762 49.3271H153.724C153.542 47.3856 151.883 46.2137 149.459 46.2137C147.035 46.2137 145.376 47.3994 145.376 49.1252C145.376 50.5006 146.435 51.31 149.027 51.9295L151.243 52.4558C155.369 53.3998 157.083 55.0032 157.083 57.8489C157.083 61.4886 154.086 63.7683 149.32 63.7683C144.86 63.7683 141.849 61.5422 141.655 58.0233L144.735 58.0234Z" fill="white"/>
<path d="M163.578 45.9031V49.2598H166.366V51.5654H163.578V59.385C163.578 60.5998 164.136 61.1658 165.362 61.1658C165.693 61.1603 166.023 61.1378 166.352 61.0985V63.3903C165.8 63.4899 165.24 63.5351 164.68 63.525C161.712 63.525 160.554 62.4464 160.554 59.6955V51.5654H158.422V49.2598H160.554V45.9031H163.578Z" fill="white"/>
<path d="M167.98 56.3527C167.98 51.8898 170.697 49.0854 174.934 49.0854C179.185 49.0854 181.889 51.8898 181.889 56.3527C181.889 60.8278 179.199 63.6199 174.934 63.6199C170.67 63.6199 167.98 60.8278 167.98 56.3527ZM178.823 56.3527C178.823 53.2913 177.372 51.4844 174.934 51.4844C172.495 51.4844 171.047 53.305 171.047 56.3527C171.047 59.4264 172.495 61.2195 174.934 61.2195C177.372 61.2195 178.822 59.4264 178.822 56.3527H178.823Z" fill="white"/>
<path d="M184.37 49.2598H187.24V51.674H187.31C187.504 50.92 187.961 50.2536 188.603 49.787C189.245 49.3203 190.034 49.0817 190.836 49.1114C191.183 49.1102 191.529 49.1466 191.868 49.22V51.9433C191.43 51.8139 190.973 51.7544 190.515 51.7674C190.078 51.7502 189.642 51.8248 189.238 51.986C188.833 52.1471 188.469 52.3911 188.171 52.7012C187.874 53.0112 187.649 53.3799 187.512 53.782C187.375 54.1842 187.33 54.6101 187.379 55.0307V63.4439H184.37L184.37 49.2598Z" fill="white"/>
<path d="M205.743 59.278C205.338 61.8529 202.746 63.6199 199.43 63.6199C195.165 63.6199 192.517 60.8553 192.517 56.42C192.517 51.9709 195.179 49.0854 199.303 49.0854C203.36 49.0854 205.91 51.7812 205.91 56.0819V57.0794H195.555V57.2554C195.508 57.7774 195.575 58.3033 195.754 58.7981C195.932 59.2929 196.217 59.7453 196.59 60.1253C196.963 60.5053 197.415 60.8042 197.917 61.002C198.419 61.1999 198.958 61.2923 199.499 61.273C200.211 61.3375 200.924 61.1781 201.534 60.8187C202.144 60.4592 202.618 59.9188 202.885 59.2779L205.743 59.278ZM195.57 55.0446H202.899C202.926 54.5752 202.853 54.1055 202.683 53.665C202.514 53.2244 202.252 52.8225 201.914 52.4845C201.577 52.1464 201.17 51.8796 200.721 51.7006C200.272 51.5217 199.789 51.4345 199.303 51.4446C198.813 51.4418 198.327 51.5329 197.874 51.7127C197.42 51.8924 197.008 52.1573 196.661 52.492C196.314 52.8267 196.039 53.2246 195.851 53.6627C195.664 54.1008 195.568 54.5705 195.57 55.0446V55.0446Z" fill="white"/>
<path d="M89.8647 29.3453C90.4956 29.3015 91.1287 29.3937 91.7184 29.6153C92.308 29.8369 92.8395 30.1823 93.2744 30.6267C93.7093 31.071 94.0369 31.6032 94.2335 32.1849C94.4301 32.7665 94.4908 33.3831 94.4113 33.9902C94.4113 36.9767 92.7429 38.6934 89.8647 38.6934H86.3746V29.3453H89.8647ZM87.8753 37.3714H89.6971C90.1479 37.3974 90.5991 37.3259 91.0178 37.162C91.4364 36.9981 91.8121 36.746 92.1173 36.4239C92.4225 36.1019 92.6497 35.718 92.7823 35.3003C92.9148 34.8826 92.9494 34.4416 92.8836 34.0093C92.9447 33.5787 92.9065 33.1404 92.7719 32.7258C92.6373 32.3111 92.4096 31.9304 92.1051 31.6109C91.8005 31.2914 91.4267 31.0411 91.0104 30.8778C90.5941 30.7145 90.1456 30.6423 89.6971 30.6664H87.8753V37.3714Z" fill="white"/>
<path d="M96.1065 35.163C96.0607 34.6994 96.1155 34.2316 96.2675 33.7897C96.4194 33.3478 96.6652 32.9415 96.989 32.5969C97.3127 32.2523 97.7074 31.9769 98.1476 31.7885C98.5878 31.6 99.0639 31.5027 99.5453 31.5027C100.027 31.5027 100.503 31.6 100.943 31.7885C101.383 31.9769 101.778 32.2523 102.102 32.5969C102.425 32.9415 102.671 33.3478 102.823 33.7897C102.975 34.2316 103.03 34.6994 102.984 35.163C103.031 35.6271 102.977 36.0955 102.825 36.5381C102.673 36.9807 102.428 37.3878 102.104 37.7331C101.78 38.0784 101.385 38.3544 100.945 38.5432C100.504 38.732 100.027 38.8296 99.5453 38.8296C99.0633 38.8296 98.5867 38.732 98.146 38.5432C97.7054 38.3544 97.3104 38.0784 96.9866 37.7331C96.6627 37.3878 96.4171 36.9807 96.2655 36.5381C96.114 36.0955 96.0598 35.6271 96.1065 35.163ZM101.504 35.163C101.504 33.6338 100.794 32.7396 99.5477 32.7396C98.2968 32.7396 97.5931 33.6338 97.5931 35.163C97.5931 36.7045 98.2968 37.5918 99.5477 37.5918C100.794 37.5918 101.504 36.6983 101.504 35.163H101.504Z" fill="white"/>
<path d="M112.126 38.6933H110.633L109.126 33.4976H109.012L107.512 38.6933H106.033L104.023 31.6387H105.483L106.789 37.0217H106.896L108.396 31.6387H109.776L111.275 37.0217H111.389L112.689 31.6387H114.128L112.126 38.6933Z" fill="white"/>
<path d="M115.819 31.6387H117.204V32.7594H117.312C117.494 32.3569 117.802 32.0195 118.192 31.7942C118.582 31.5689 119.035 31.4669 119.488 31.5025C119.842 31.4767 120.199 31.5285 120.53 31.654C120.861 31.7795 121.159 31.9755 121.401 32.2275C121.644 32.4794 121.825 32.781 121.93 33.1097C122.036 33.4384 122.064 33.7859 122.011 34.1264V38.6932H120.572V34.476C120.572 33.3423 120.063 32.7785 118.999 32.7785C118.758 32.7677 118.518 32.8073 118.294 32.8948C118.07 32.9823 117.869 33.1155 117.704 33.2853C117.538 33.4551 117.413 33.6575 117.336 33.8786C117.259 34.0997 117.232 34.3343 117.258 34.5663V38.6933H115.819L115.819 31.6387Z" fill="white"/>
<path d="M124.305 28.8848H125.744V38.6933H124.305V28.8848Z" fill="white"/>
<path d="M127.744 35.1629C127.698 34.6993 127.753 34.2315 127.905 33.7896C128.057 33.3476 128.303 32.9413 128.627 32.5967C128.95 32.252 129.345 31.9766 129.785 31.7882C130.226 31.5998 130.702 31.5024 131.183 31.5024C131.665 31.5024 132.141 31.5998 132.581 31.7882C133.021 31.9766 133.416 32.252 133.74 32.5967C134.064 32.9413 134.309 33.3476 134.461 33.7896C134.613 34.2315 134.668 34.6993 134.622 35.1629C134.669 35.627 134.615 36.0954 134.463 36.538C134.312 36.9807 134.066 37.3877 133.742 37.733C133.418 38.0783 133.023 38.3542 132.582 38.5431C132.142 38.7319 131.665 38.8294 131.183 38.8294C130.701 38.8294 130.225 38.7319 129.784 38.5431C129.343 38.3542 128.948 38.0783 128.624 37.733C128.3 37.3877 128.055 36.9807 127.903 36.538C127.752 36.0954 127.697 35.627 127.744 35.1629ZM133.141 35.1629C133.141 33.6337 132.431 32.7395 131.185 32.7395C129.934 32.7395 129.231 33.6337 129.231 35.1629C129.231 36.7043 129.934 37.5917 131.185 37.5917C132.431 37.5917 133.141 36.6982 133.141 35.1629H133.141Z" fill="white"/>
<path d="M136.137 36.6981C136.137 35.4283 137.115 34.6962 138.849 34.5922L140.825 34.482V33.8731C140.825 33.128 140.315 32.7073 139.332 32.7073C138.528 32.7073 137.972 32.9926 137.812 33.4914H136.419C136.566 32.2796 137.744 31.5024 139.398 31.5024C141.226 31.5024 142.257 32.3829 142.257 33.8731V38.6932H140.872V37.7018H140.758C140.527 38.0574 140.203 38.3473 139.818 38.5419C139.433 38.7365 139.002 38.8288 138.568 38.8094C138.262 38.8402 137.952 38.8086 137.66 38.7167C137.367 38.6247 137.097 38.4744 136.868 38.2755C136.639 38.0766 136.456 37.8335 136.33 37.5618C136.204 37.2901 136.139 36.9959 136.137 36.6981ZM140.825 36.0953V35.5055L139.044 35.6157C138.04 35.6807 137.584 36.0112 137.584 36.6331C137.584 37.268 138.154 37.6375 138.936 37.6375C139.166 37.66 139.398 37.6376 139.618 37.5716C139.838 37.5057 140.042 37.3976 140.218 37.2537C140.395 37.1098 140.539 36.9331 140.643 36.7341C140.747 36.5351 140.809 36.3179 140.825 36.0953Z" fill="white"/>
<path d="M144.149 35.1629C144.149 32.9338 145.333 31.5217 147.175 31.5217C147.631 31.5013 148.083 31.6069 148.479 31.8261C148.875 32.0453 149.199 32.369 149.412 32.7593H149.519V28.8848H150.958V38.6933H149.579V37.5787H149.465C149.236 37.9664 148.901 38.2861 148.498 38.503C148.094 38.72 147.637 38.826 147.176 38.8095C145.321 38.8096 144.149 37.3974 144.149 35.1629ZM145.635 35.1629C145.635 36.6592 146.364 37.5596 147.584 37.5596C148.796 37.5596 149.546 36.6462 149.546 35.1691C149.546 33.6988 148.789 32.7724 147.584 32.7724C146.372 32.7724 145.635 33.6789 145.635 35.1629H145.635Z" fill="white"/>
<path d="M156.912 35.163C156.866 34.6994 156.921 34.2316 157.073 33.7897C157.225 33.3478 157.471 32.9415 157.795 32.5969C158.118 32.2523 158.513 31.9769 158.953 31.7885C159.393 31.6 159.87 31.5027 160.351 31.5027C160.832 31.5027 161.308 31.6 161.749 31.7885C162.189 31.9769 162.583 32.2523 162.907 32.5969C163.231 32.9415 163.477 33.3478 163.629 33.7897C163.781 34.2316 163.836 34.6994 163.79 35.163C163.836 35.6271 163.782 36.0955 163.631 36.5381C163.479 36.9807 163.233 37.3878 162.91 37.7331C162.586 38.0784 162.191 38.3544 161.75 38.5432C161.309 38.732 160.833 38.8296 160.351 38.8296C159.869 38.8296 159.392 38.732 158.952 38.5432C158.511 38.3544 158.116 38.0784 157.792 37.7331C157.468 37.3878 157.223 36.9807 157.071 36.5381C156.92 36.0955 156.865 35.6271 156.912 35.163ZM162.309 35.163C162.309 33.6338 161.599 32.7396 160.353 32.7396C159.102 32.7396 158.399 33.6338 158.399 35.163C158.399 36.7045 159.102 37.5918 160.353 37.5918C161.599 37.5918 162.309 36.6983 162.309 35.163Z" fill="white"/>
<path d="M165.721 31.6387H167.106V32.7594H167.213C167.396 32.3569 167.704 32.0195 168.094 31.7942C168.484 31.5689 168.937 31.4669 169.389 31.5025C169.744 31.4767 170.1 31.5285 170.432 31.654C170.763 31.7795 171.061 31.9755 171.303 32.2275C171.546 32.4794 171.726 32.781 171.832 33.1097C171.938 33.4384 171.965 33.7859 171.913 34.1264V38.6932H170.474V34.476C170.474 33.3423 169.965 32.7785 168.901 32.7785C168.66 32.7677 168.419 32.8073 168.196 32.8948C167.972 32.9823 167.771 33.1155 167.606 33.2853C167.44 33.4551 167.315 33.6575 167.238 33.8786C167.161 34.0997 167.134 34.3343 167.16 34.5663V38.6933H165.721V31.6387Z" fill="white"/>
<path d="M180.045 29.8823V31.6708H181.625V32.8435H180.045V36.471C180.045 37.21 180.36 37.5336 181.076 37.5336C181.259 37.533 181.443 37.5223 181.625 37.5015V38.6612C181.366 38.7059 181.104 38.7297 180.842 38.7323C179.242 38.7323 178.604 38.1876 178.604 36.8275V32.8435H177.447V31.6708H178.604V29.8823H180.045Z" fill="white"/>
<path d="M183.59 28.8848H185.017V32.7724H185.131C185.322 32.3661 185.638 32.0268 186.036 31.8006C186.434 31.5745 186.894 31.4725 187.354 31.5086C187.707 31.4901 188.06 31.5471 188.387 31.6756C188.715 31.8041 189.009 32.001 189.249 32.2522C189.489 32.5034 189.669 32.8027 189.775 33.1288C189.882 33.4549 189.912 33.7997 189.865 34.1386V38.6933H188.425V34.4821C188.425 33.3553 187.882 32.7846 186.866 32.7846C186.618 32.765 186.369 32.7979 186.137 32.881C185.904 32.9641 185.693 33.0954 185.518 33.2658C185.343 33.4361 185.209 33.6414 185.124 33.8672C185.04 34.093 185.008 34.3339 185.03 34.5731V38.6932H183.591L183.59 28.8848Z" fill="white"/>
<path d="M198.256 36.7885C198.061 37.4333 197.637 37.991 197.06 38.3641C196.482 38.7372 195.787 38.9019 195.097 38.8295C194.616 38.8417 194.139 38.7527 193.698 38.5686C193.256 38.3845 192.862 38.1096 192.541 37.7632C192.221 37.4167 191.982 37.007 191.842 36.5623C191.701 36.1177 191.663 35.6488 191.728 35.1882C191.664 34.7262 191.704 34.2563 191.844 33.8103C191.984 33.3644 192.221 32.9527 192.54 32.6032C192.859 32.2537 193.252 31.9746 193.692 31.7847C194.132 31.5948 194.609 31.4986 195.09 31.5026C197.119 31.5026 198.343 32.8436 198.343 35.0589V35.5447H193.194V35.6227C193.172 35.8816 193.205 36.1422 193.293 36.3878C193.381 36.6333 193.52 36.8585 193.703 37.0488C193.886 37.239 194.108 37.3903 194.355 37.4927C194.602 37.5952 194.868 37.6466 195.136 37.6437C195.48 37.6837 195.829 37.6237 196.138 37.4714C196.447 37.3192 196.702 37.0814 196.871 36.7885L198.256 36.7885ZM193.194 34.515H196.877C196.895 34.2783 196.862 34.0404 196.78 33.8168C196.697 33.5933 196.567 33.3888 196.398 33.2167C196.229 33.0446 196.025 32.9086 195.798 32.8175C195.572 32.7263 195.328 32.6821 195.082 32.6875C194.834 32.6845 194.587 32.7297 194.356 32.8205C194.125 32.9113 193.916 33.0458 193.74 33.2161C193.564 33.3864 193.425 33.5891 193.331 33.8122C193.238 34.0352 193.191 34.2742 193.194 34.515H193.194Z" fill="white"/>
</svg>
