<svg width="26" height="26" viewBox="0 0 26 26" fill="none" xmlns="http://www.w3.org/2000/svg">
<path d="M11.7396 13.3908L11.738 13.0072C11.738 11.4129 11.8313 9.95943 11.9719 9.01193L12.0952 8.42273C12.1637 8.11068 12.2538 7.75537 12.3478 7.57399C12.6917 6.9105 13.3641 6.5 14.0838 6.5H14.1465C14.6156 6.51551 15.6013 6.92721 15.6013 6.94153C17.1872 7.60698 20.247 9.61536 21.6602 11.0472L22.0708 11.477C22.1784 11.5935 22.2992 11.7314 22.3742 11.8389C22.6247 12.1706 22.75 12.5811 22.75 12.9916C22.75 13.4499 22.6094 13.8759 22.3435 14.2243L21.9215 14.6797L21.827 14.7768C20.5448 16.1671 17.1967 18.4403 15.4453 19.136L15.1808 19.2374C14.8626 19.3514 14.4168 19.4875 14.1465 19.5C13.8026 19.5 13.474 19.42 13.1608 19.2625C12.7697 19.0418 12.4577 18.6933 12.2851 18.2828C12.1752 17.9988 12.0027 17.1456 12.0027 17.1301C11.8445 16.2698 11.7528 14.9123 11.7396 13.3908ZM3.25 12.9995C3.25 12.0914 3.97917 11.3551 4.87852 11.3551L8.88602 11.7095C9.59156 11.7095 10.1636 12.2871 10.1636 12.9995C10.1636 13.7131 9.59156 14.2895 8.88602 14.2895L4.87852 14.6439C3.97917 14.6439 3.25 13.9076 3.25 12.9995Z" fill="white"/>
</svg>
