<svg width="226" height="90" viewBox="0 0 226 90" fill="none" xmlns="http://www.w3.org/2000/svg">
<path d="M204.129 74.6666H21.871C17.8613 74.6666 14.5806 71.3291 14.5806 67.2499V22.7499C14.5806 18.6708 17.8613 15.3333 21.871 15.3333H204.129C208.139 15.3333 211.419 18.6708 211.419 22.7499V67.2499C211.419 71.3291 208.139 74.6666 204.129 74.6666Z" fill="#357D4C"/>
<path d="M83.722 30.5228C83.722 31.7688 83.3575 32.7626 82.6285 33.4894C81.812 34.3646 80.733 34.8096 79.4207 34.8096C78.1522 34.8096 77.0878 34.3646 76.1984 33.4746C75.309 32.5846 74.8716 31.4721 74.8716 30.1668C74.8716 28.8466 75.309 27.7489 76.1984 26.8589C77.0878 25.9689 78.1522 25.5239 79.4207 25.5239C80.0477 25.5239 80.6455 25.6426 81.2142 25.8948C81.7828 26.1469 82.2348 26.4733 82.5847 26.8886L81.812 27.6748C81.2287 26.9776 80.4414 26.6216 79.4207 26.6216C78.5022 26.6216 77.7002 26.9479 77.0295 27.6154C76.3588 28.2681 76.0235 29.1284 76.0235 30.1816C76.0235 31.2348 76.3588 32.0951 77.0295 32.7478C77.7002 33.4004 78.5022 33.7416 79.4207 33.7416C80.3976 33.7416 81.2142 33.4153 81.8703 32.7478C82.2931 32.3176 82.541 31.7094 82.5993 30.9381H79.4207V29.8701H83.6637C83.6929 30.0926 83.722 30.3151 83.722 30.5228Z" fill="white" stroke="white" stroke-width="0.2" stroke-miterlimit="10"/>
<path d="M90.4437 26.8145H86.4632V29.6328H90.05V30.7008H86.4632V33.5191H90.4437V34.6168H85.3405V25.7168H90.4437V26.8145Z" fill="white" stroke="white" stroke-width="0.2" stroke-miterlimit="10"/>
<path d="M95.1824 34.6168H94.0597V26.8145H91.6102V25.7168H97.6174V26.8145H95.1678V34.6168H95.1824Z" fill="white" stroke="white" stroke-width="0.2" stroke-miterlimit="10"/>
<path d="M101.977 34.6168V25.7168H103.1V34.6168H101.977Z" fill="white" stroke="white" stroke-width="0.2" stroke-miterlimit="10"/>
<path d="M108.086 34.6168H106.964V26.8145H104.514V25.7168H110.521V26.8145H108.072V34.6168H108.086Z" fill="white" stroke="white" stroke-width="0.2" stroke-miterlimit="10"/>
<path d="M121.909 33.4598C121.048 34.3646 119.984 34.8096 118.701 34.8096C117.418 34.8096 116.353 34.3646 115.493 33.4598C114.633 32.5549 114.21 31.4573 114.21 30.1668C114.21 28.8763 114.633 27.7638 115.493 26.8738C116.353 25.9689 117.418 25.5239 118.701 25.5239C119.97 25.5239 121.034 25.9689 121.909 26.8738C122.769 27.7786 123.206 28.8763 123.206 30.1668C123.192 31.4721 122.769 32.5698 121.909 33.4598ZM116.324 32.7181C116.966 33.3856 117.768 33.7119 118.701 33.7119C119.634 33.7119 120.436 33.3856 121.078 32.7181C121.719 32.0506 122.055 31.2051 122.055 30.1668C122.055 29.1284 121.734 28.2829 121.078 27.6154C120.436 26.9479 119.634 26.6216 118.701 26.6216C117.768 26.6216 116.966 26.9479 116.324 27.6154C115.683 28.2829 115.347 29.1284 115.347 30.1668C115.347 31.2051 115.683 32.0506 116.324 32.7181Z" fill="white" stroke="white" stroke-width="0.2" stroke-miterlimit="10"/>
<path d="M124.781 34.6168V25.7168H126.152L130.409 32.644H130.453L130.409 30.9233V25.7168H131.532V34.6168H130.366L125.918 27.3633H125.875L125.918 29.084V34.6168H124.781Z" fill="white" stroke="white" stroke-width="0.2" stroke-miterlimit="10"/>
<path d="M113.933 47.5959C110.507 47.5959 107.707 50.2511 107.707 53.9001C107.707 57.5343 110.507 60.2043 113.933 60.2043C117.36 60.2043 120.159 57.5343 120.159 53.9001C120.159 50.2511 117.36 47.5959 113.933 47.5959ZM113.933 57.7271C112.052 57.7271 110.434 56.1548 110.434 53.9001C110.434 51.6306 112.052 50.0731 113.933 50.0731C115.814 50.0731 117.433 51.6306 117.433 53.9001C117.433 56.1548 115.799 57.7271 113.933 57.7271ZM100.344 47.5959C96.9175 47.5959 94.1181 50.2511 94.1181 53.9001C94.1181 57.5343 96.9175 60.2043 100.344 60.2043C103.77 60.2043 106.57 57.5343 106.57 53.9001C106.57 50.2511 103.77 47.5959 100.344 47.5959ZM100.344 57.7271C98.4631 57.7271 96.8446 56.1548 96.8446 53.9001C96.8446 51.6306 98.4631 50.0731 100.344 50.0731C102.225 50.0731 103.843 51.6306 103.843 53.9001C103.843 56.1548 102.225 57.7271 100.344 57.7271ZM84.1886 49.5391V52.2091H90.4875C90.2979 53.7073 89.8022 54.8198 89.0586 55.5763C88.14 56.5108 86.7111 57.5343 84.2032 57.5343C80.3248 57.5343 77.292 54.3599 77.292 50.4143C77.292 46.4686 80.3248 43.2943 84.2032 43.2943C86.2883 43.2943 87.8192 44.1249 88.9419 45.2078L90.7937 43.3239C89.219 41.7961 87.1339 40.6243 84.1886 40.6243C78.8813 40.6243 74.4196 45.0149 74.4196 50.4291C74.4196 55.8284 78.8813 60.2339 84.1886 60.2339C87.061 60.2339 89.219 59.2846 90.9103 57.4898C92.6454 55.7246 93.1849 53.2326 93.1849 51.2301C93.1849 50.6071 93.1412 50.0286 93.0391 49.5539H84.1886V49.5391ZM150.254 51.6158C149.743 50.2066 148.169 47.5959 144.946 47.5959C141.753 47.5959 139.099 50.1473 139.099 53.9001C139.099 57.4304 141.724 60.2043 145.252 60.2043C148.096 60.2043 149.743 58.4391 150.414 57.4156L148.3 55.9768C147.6 57.0299 146.638 57.7271 145.252 57.7271C143.867 57.7271 142.876 57.0744 142.249 55.8136L150.545 52.3278L150.254 51.6158ZM141.797 53.7221C141.724 51.2894 143.649 50.0434 145.034 50.0434C146.113 50.0434 147.031 50.5923 147.337 51.3784L141.797 53.7221ZM135.061 59.8334H137.787V41.2918H135.061V59.8334ZM130.599 49.0051H130.497C129.884 48.2634 128.718 47.5959 127.231 47.5959C124.125 47.5959 121.282 50.3698 121.282 53.9298C121.282 57.4601 124.125 60.2191 127.231 60.2191C128.703 60.2191 129.884 59.5516 130.497 58.7803H130.584V59.6851C130.584 62.1029 129.316 63.3934 127.274 63.3934C125.612 63.3934 124.577 62.1771 124.154 61.1536L121.778 62.1623C122.463 63.8384 124.271 65.8854 127.274 65.8854C130.468 65.8854 133.165 63.9719 133.165 59.3143V47.9816H130.584V49.0051H130.599ZM127.464 57.7271C125.583 57.7271 124.008 56.1251 124.008 53.9298C124.008 51.7048 125.583 50.0879 127.464 50.0879C129.316 50.0879 130.774 51.7196 130.774 53.9298C130.788 56.1251 129.33 57.7271 127.464 57.7271ZM163.026 41.2918H156.509V59.8334H159.235V52.8024H163.041C166.059 52.8024 169.019 50.5774 169.019 47.0471C169.019 43.5168 166.03 41.2918 163.026 41.2918ZM163.085 50.2214H159.221V43.8579H163.085C165.126 43.8579 166.278 45.5786 166.278 47.0323C166.278 48.4859 165.126 50.2214 163.085 50.2214ZM179.911 47.5663C177.942 47.5663 175.901 48.4563 175.055 50.3994L177.476 51.4229C177.986 50.3994 178.948 50.0583 179.954 50.0583C181.354 50.0583 182.798 50.9186 182.812 52.4464V52.6393C182.316 52.3574 181.267 51.9273 179.969 51.9273C177.359 51.9273 174.72 53.3809 174.72 56.0954C174.72 58.5726 176.849 60.1746 179.24 60.1746C181.062 60.1746 182.083 59.3439 182.71 58.3649H182.798V59.8038H185.422V52.6986C185.437 49.4056 183.016 47.5663 179.911 47.5663ZM179.575 57.7271C178.686 57.7271 177.446 57.2673 177.446 56.1548C177.446 54.7308 178.992 54.1819 180.333 54.1819C181.529 54.1819 182.098 54.4489 182.812 54.8049C182.608 56.5108 181.15 57.7271 179.575 57.7271ZM195.002 47.9668L191.881 56.0064H191.794L188.557 47.9668H185.626L190.482 59.2104L187.711 65.4553H190.554L198.034 47.9668H195.002ZM170.506 59.8334H173.233V41.2918H170.506V59.8334Z" fill="white"/>
<path d="M29.8029 26.5177C29.38 26.9775 29.1321 27.6895 29.1321 28.5943V61.4057C29.1321 62.3253 29.38 63.0373 29.8029 63.4823L29.9049 63.5862L47.9703 45.2225V45V44.7775L29.9049 26.4138L29.8029 26.5177Z" fill="white"/>
<path d="M54.6303 51.3487L48.6085 45.2225V45V44.7775L54.6303 38.6514L54.7615 38.7255L61.8914 42.8492C63.9327 44.021 63.9327 45.9494 61.8914 47.136L54.7615 51.2597L54.6303 51.3487Z" fill="white"/>
<path d="M54.1234 52.7431L47.9703 46.4834L29.8029 64.9657C30.4736 65.6926 31.5817 65.7816 32.8356 65.0547L54.1234 52.7431Z" fill="white"/>
<path d="M54.1234 37.257L32.821 24.9453C31.5671 24.2185 30.459 24.3075 29.7883 25.0343L47.9703 43.5166L54.1234 37.257Z" fill="white"/>
</svg>
