<svg width="148" height="49" viewBox="0 0 148 49" fill="none" xmlns="http://www.w3.org/2000/svg">
<path d="M10.3461 48.4063C9.96867 48.4063 9.60038 48.4014 9.22593 48.3929C8.45023 48.3827 7.67634 48.3145 6.91061 48.189C6.1966 48.0649 5.50493 47.8341 4.85839 47.5041C4.21778 47.1769 3.63349 46.7478 3.12791 46.2334C2.61501 45.725 2.188 45.1353 1.8638 44.4878C1.53602 43.836 1.30918 43.1374 1.19118 42.4163C1.06374 41.6414 0.994797 40.8579 0.984932 40.0725C0.977078 39.8089 0.966797 38.9311 0.966797 38.9311V10.0554C0.966797 10.0554 0.977747 9.19116 0.984994 8.93725C0.99444 8.1531 1.06299 7.37082 1.19004 6.59716C1.30826 5.87406 1.53527 5.17344 1.86323 4.51954C2.18624 3.87243 2.61088 3.28233 3.12069 2.7721C3.62993 2.25703 4.21608 1.82576 4.85778 1.49401C5.50283 1.16512 6.1932 0.935916 6.90577 0.814088C7.67401 0.687295 8.45059 0.618745 9.22898 0.609013L10.3467 0.59375H137.647L138.778 0.609625C139.549 0.618874 140.319 0.686813 141.08 0.812863C141.8 0.936219 142.498 1.16702 143.15 1.49768C144.435 2.16623 145.482 3.22395 146.141 4.52259C146.464 5.17197 146.688 5.86688 146.804 6.58374C146.933 7.36374 147.005 8.15217 147.02 8.94275C147.023 9.29675 147.023 9.677 147.023 10.0554C147.033 10.5242 147.033 10.9703 147.033 11.4202V37.581C147.033 38.0351 147.033 38.4783 147.023 38.925C147.023 39.3315 147.023 39.7039 147.018 40.0871C147.004 40.8636 146.933 41.638 146.807 42.404C146.691 43.1303 146.466 43.8344 146.138 44.4915C145.811 45.132 145.387 45.7166 144.88 46.2236C144.374 46.7409 143.788 47.1724 143.146 47.5018C142.496 47.8342 141.799 48.0659 141.08 48.189C140.314 48.3152 139.541 48.3834 138.765 48.3929C138.402 48.4014 138.022 48.4063 137.653 48.4063L136.31 48.4088L10.3461 48.4063Z" fill="#357D4C"/>
<path d="M30.5669 24.8759C30.5802 23.8326 30.8548 22.8096 31.3652 21.9022C31.8756 20.9947 32.6051 20.2323 33.486 19.6858C32.9264 18.8794 32.1882 18.2157 31.33 17.7475C30.4718 17.2793 29.5172 17.0195 28.5421 16.9887C26.462 16.7684 24.4454 18.2448 23.3855 18.2448C22.305 18.2448 20.673 17.0106 18.9156 17.0471C17.7788 17.0841 16.671 17.4177 15.7 18.0153C14.729 18.6129 13.928 19.4541 13.3749 20.4569C10.9793 24.6424 12.7662 30.7938 15.0611 34.177C16.2092 35.8337 17.5511 37.6843 19.3069 37.6186C21.0251 37.5467 21.6668 36.513 23.7407 36.513C25.7955 36.513 26.3975 37.6186 28.1889 37.5769C30.0326 37.5467 31.1942 35.9129 32.3021 34.2405C33.127 33.06 33.7618 31.7554 34.183 30.3749C33.1118 29.9177 32.1978 29.1525 31.5547 28.1746C30.9117 27.1967 30.5681 26.0495 30.5669 24.8759V24.8759Z" fill="white"/>
<path d="M27.1832 14.7637C28.1884 13.5459 28.6837 11.9807 28.5637 10.4004C27.0279 10.5632 25.6093 11.3039 24.5905 12.4749C24.0923 13.047 23.7108 13.7125 23.4677 14.4335C23.2246 15.1545 23.1247 15.9167 23.1737 16.6766C23.9419 16.6846 24.7019 16.5166 25.3964 16.1852C26.0909 15.8539 26.7018 15.3678 27.1832 14.7637Z" fill="white"/>
<path d="M52.2856 33.4246H46.4223L45.0142 37.6202H42.5308L48.0844 22.0977H50.6646L56.2183 37.6202H53.6924L52.2856 33.4246ZM47.0295 31.4886H51.6772L49.3861 24.6795H49.3219L47.0295 31.4886Z" fill="white"/>
<path d="M68.2121 31.9623C68.2121 35.4792 66.3468 37.7387 63.5319 37.7387C62.8188 37.7763 62.1096 37.6105 61.4856 37.2604C60.8615 36.9102 60.3478 36.3898 60.0032 35.7587H59.95V41.3641H57.6479V26.3031H59.8762V28.1854H59.9186C60.279 27.5574 60.8014 27.0396 61.4302 26.6873C62.059 26.335 62.7707 26.1613 63.4895 26.1847C66.3358 26.1847 68.2121 28.4552 68.2121 31.9623ZM65.846 31.9623C65.846 29.6711 64.6726 28.1647 62.8823 28.1647C61.1234 28.1647 59.9403 29.7028 59.9403 31.9623C59.9403 34.2426 61.1234 35.7697 62.8823 35.7697C64.6726 35.7697 65.846 34.2743 65.846 31.9623Z" fill="white"/>
<path d="M80.5558 31.9623C80.5558 35.4791 78.6905 37.7387 75.8756 37.7387C75.1625 37.7763 74.4534 37.6105 73.8293 37.2604C73.2053 36.9102 72.6916 36.3898 72.347 35.7587H72.2937V41.3641H69.9917V26.3031H72.2199V28.1854H72.2623C72.6227 27.5573 73.1451 27.0396 73.7739 26.6873C74.4027 26.335 75.1144 26.1613 75.8332 26.1847C78.6796 26.1847 80.5558 28.4552 80.5558 31.9623ZM78.1897 31.9623C78.1897 29.671 77.0163 28.1647 75.226 28.1647C73.4671 28.1647 72.2841 29.7028 72.2841 31.9623C72.2841 34.2426 73.4671 35.7697 75.226 35.7697C77.0163 35.7697 78.1897 34.2743 78.1897 31.9623H78.1897Z" fill="white"/>
<path d="M88.7139 33.2952C88.8845 34.8345 90.3663 35.8452 92.3913 35.8452C94.3317 35.8452 95.7276 34.8345 95.7276 33.4465C95.7276 32.2417 94.8857 31.5203 92.8921 31.0259L90.8986 30.5413C88.074 29.8528 86.7627 28.5198 86.7627 26.3567C86.7627 23.6785 89.0756 21.8389 92.3599 21.8389C95.6103 21.8389 97.8385 23.6785 97.9135 26.3567H95.5897C95.4506 24.8076 94.1816 23.8726 92.3272 23.8726C90.4728 23.8726 89.2038 24.8186 89.2038 26.1956C89.2038 27.293 90.0143 27.9387 91.9969 28.4331L93.6917 28.853C96.8477 29.6062 98.159 30.8855 98.159 33.156C98.159 36.06 95.8667 37.8789 92.2207 37.8789C88.8094 37.8789 86.5062 36.1027 86.3574 33.2951L88.7139 33.2952Z" fill="white"/>
<path d="M103.127 23.6248V26.303H105.26V28.1426H103.127V34.3816C103.127 35.3508 103.554 35.8025 104.492 35.8025C104.745 35.798 104.998 35.7801 105.249 35.7487V37.5774C104.827 37.6568 104.399 37.6928 103.97 37.6848C101.7 37.6848 100.814 36.8242 100.814 34.6294V28.1426H99.1836V26.303H100.814V23.6248H103.127Z" fill="white"/>
<path d="M106.495 31.9622C106.495 28.4014 108.573 26.1638 111.814 26.1638C115.065 26.1638 117.134 28.4013 117.134 31.9622C117.134 35.5327 115.076 37.7605 111.814 37.7605C108.552 37.7605 106.495 35.5327 106.495 31.9622ZM114.788 31.9622C114.788 29.5195 113.679 28.0779 111.814 28.0779C109.948 28.0779 108.84 29.5305 108.84 31.9622C108.84 34.4145 109.948 35.8452 111.814 35.8452C113.679 35.8452 114.788 34.4145 114.788 31.9622H114.788Z" fill="white"/>
<path d="M119.032 26.303H121.228V28.2293H121.281C121.429 27.6277 121.779 27.096 122.27 26.7236C122.761 26.3513 123.364 26.1609 123.978 26.1846C124.244 26.1836 124.508 26.2127 124.767 26.2713V28.4441C124.432 28.3408 124.083 28.2934 123.733 28.3037C123.398 28.29 123.065 28.3495 122.755 28.4782C122.446 28.6068 122.168 28.8014 121.94 29.0488C121.712 29.2962 121.54 29.5904 121.435 29.9112C121.331 30.232 121.296 30.5719 121.334 30.9075V37.6201H119.032L119.032 26.303Z" fill="white"/>
<path d="M135.381 34.2961C135.071 36.3506 133.088 37.7605 130.552 37.7605C127.289 37.7605 125.264 35.5547 125.264 32.0159C125.264 28.4661 127.3 26.1638 130.455 26.1638C133.558 26.1638 135.509 28.3147 135.509 31.7461V32.542H127.588V32.6824C127.551 33.0989 127.603 33.5184 127.74 33.9132C127.876 34.308 128.094 34.669 128.38 34.9722C128.665 35.2754 129.011 35.5139 129.395 35.6717C129.778 35.8296 130.191 35.9033 130.605 35.8879C131.149 35.9394 131.695 35.8122 132.161 35.5254C132.628 35.2386 132.99 34.8075 133.195 34.2961L135.381 34.2961ZM127.599 30.9185H133.206C133.226 30.544 133.17 30.1692 133.04 29.8177C132.911 29.4662 132.71 29.1455 132.452 28.8758C132.194 28.6061 131.883 28.3932 131.539 28.2504C131.196 28.1076 130.826 28.0381 130.455 28.0461C130.08 28.0439 129.708 28.1166 129.362 28.26C129.015 28.4034 128.699 28.6148 128.434 28.8818C128.168 29.1488 127.958 29.4663 127.814 29.8159C127.671 30.1654 127.598 30.5402 127.599 30.9185V30.9185Z" fill="white"/>
<path d="M46.741 10.4137C47.2237 10.3788 47.7079 10.4524 48.159 10.6292C48.61 10.8059 49.0165 11.0815 49.3492 11.4361C49.6819 11.7906 49.9325 12.2152 50.0829 12.6793C50.2333 13.1434 50.2797 13.6354 50.2189 14.1198C50.2189 16.5026 48.9427 17.8723 46.741 17.8723H44.0713V10.4137H46.741ZM45.2193 16.8175H46.6128C46.9577 16.8383 47.3028 16.7812 47.623 16.6505C47.9433 16.5197 48.2306 16.3185 48.4641 16.0616C48.6976 15.8046 48.8714 15.4983 48.9728 15.1651C49.0742 14.8318 49.1007 14.4799 49.0503 14.135C49.097 13.7914 49.0678 13.4417 48.9649 13.1109C48.8619 12.7801 48.6877 12.4763 48.4548 12.2214C48.2218 11.9665 47.9359 11.7667 47.6174 11.6364C47.299 11.5061 46.9559 11.4485 46.6128 11.4677H45.2193V16.8175Z" fill="white"/>
<path d="M51.5156 15.0552C51.4806 14.6853 51.5225 14.3121 51.6387 13.9595C51.755 13.607 51.9429 13.2828 52.1906 13.0078C52.4383 12.7328 52.7402 12.5131 53.0769 12.3628C53.4137 12.2124 53.7778 12.1348 54.1461 12.1348C54.5143 12.1348 54.8785 12.2124 55.2152 12.3628C55.5519 12.5131 55.8538 12.7328 56.1015 13.0078C56.3492 13.2828 56.5372 13.607 56.6534 13.9595C56.7696 14.3121 56.8116 14.6853 56.7765 15.0552C56.8122 15.4255 56.7708 15.7992 56.6549 16.1524C56.5389 16.5056 56.3511 16.8303 56.1033 17.1058C55.8556 17.3814 55.5535 17.6015 55.2164 17.7522C54.8793 17.9029 54.5147 17.9807 54.1461 17.9807C53.7774 17.9807 53.4128 17.9029 53.0757 17.7522C52.7386 17.6015 52.4365 17.3814 52.1888 17.1058C51.9411 16.8303 51.7532 16.5056 51.6373 16.1524C51.5213 15.7992 51.4799 15.4255 51.5156 15.0552V15.0552ZM55.6442 15.0552C55.6442 13.8352 55.1011 13.1217 54.1479 13.1217C53.191 13.1217 52.6528 13.8352 52.6528 15.0553C52.6528 16.2851 53.1911 16.9931 54.1479 16.9931C55.1011 16.9931 55.6443 16.2802 55.6443 15.0552H55.6442Z" fill="white"/>
<path d="M63.7697 17.8721H62.6277L61.4749 13.7266H61.3878L60.2398 17.8721H59.1088L57.5713 12.2434H58.6878L59.687 16.5384H59.7693L60.9161 12.2434H61.9721L63.1189 16.5384H63.206L64.2003 12.2434H65.3011L63.7697 17.8721Z" fill="white"/>
<path d="M66.5942 12.2433H67.6539V13.1375H67.7362C67.8757 12.8164 68.1111 12.5471 68.4095 12.3674C68.7078 12.1876 69.0543 12.1063 69.4007 12.1347C69.6721 12.1141 69.9446 12.1554 70.198 12.2555C70.4515 12.3556 70.6793 12.512 70.8648 12.7131C71.0502 12.9141 71.1884 13.1547 71.2691 13.417C71.3499 13.6793 71.3712 13.9565 71.3313 14.2282V17.8719H70.2305V14.5071C70.2305 13.6026 69.841 13.1528 69.0269 13.1528C68.8426 13.1441 68.6587 13.1758 68.4877 13.2455C68.3167 13.3153 68.1626 13.4216 68.0361 13.5571C67.9096 13.6926 67.8136 13.8541 67.7548 14.0305C67.6959 14.2069 67.6755 14.3941 67.695 14.5792V17.872H66.5942L66.5942 12.2433Z" fill="white"/>
<path d="M73.0854 10.0461H74.1863V17.8721H73.0854V10.0461Z" fill="white"/>
<path d="M75.7165 15.0553C75.6815 14.6854 75.7234 14.3122 75.8397 13.9596C75.956 13.607 76.144 13.2828 76.3917 13.0078C76.6394 12.7328 76.9413 12.5131 77.2781 12.3628C77.6148 12.2124 77.979 12.1348 78.3473 12.1348C78.7155 12.1348 79.0797 12.2124 79.4165 12.3628C79.7532 12.5131 80.0551 12.7328 80.3028 13.0078C80.5505 13.2828 80.7385 13.607 80.8548 13.9596C80.9711 14.3122 81.013 14.6854 80.978 15.0553C81.0137 15.4256 80.9722 15.7994 80.8563 16.1525C80.7403 16.5057 80.5524 16.8304 80.3046 17.106C80.0569 17.3815 79.7547 17.6016 79.4176 17.7523C79.0805 17.9029 78.7159 17.9808 78.3473 17.9808C77.9786 17.9808 77.614 17.9029 77.2769 17.7523C76.9398 17.6016 76.6377 17.3815 76.3899 17.106C76.1421 16.8304 75.9542 16.5057 75.8383 16.1525C75.7223 15.7994 75.6808 15.4256 75.7165 15.0553V15.0553ZM79.8451 15.0553C79.8451 13.8353 79.302 13.1218 78.3488 13.1218C77.3919 13.1218 76.8537 13.8353 76.8537 15.0554C76.8537 16.2852 77.392 16.9932 78.3488 16.9932C79.302 16.9932 79.8451 16.2803 79.8451 15.0553H79.8451Z" fill="white"/>
<path d="M82.1367 16.2803C82.1367 15.2671 82.8843 14.683 84.2113 14.6L85.7222 14.5121V14.0262C85.7222 13.4318 85.3327 13.0961 84.5803 13.0961C83.9658 13.0961 83.54 13.3237 83.4178 13.7217H82.352C82.4645 12.7549 83.3658 12.1348 84.6311 12.1348C86.0295 12.1348 86.8182 12.8373 86.8182 14.0262V17.8721H85.7585V17.0811H85.6714C85.4946 17.3648 85.2464 17.5961 84.952 17.7514C84.6577 17.9066 84.3278 17.9803 83.996 17.9648C83.7618 17.9894 83.5252 17.9642 83.3013 17.8908C83.0774 17.8174 82.8712 17.6975 82.696 17.5388C82.5208 17.3801 82.3805 17.1861 82.2842 16.9693C82.1879 16.7526 82.1376 16.5178 82.1367 16.2803V16.2803ZM85.7222 15.7993V15.3287L84.3601 15.4166C83.592 15.4685 83.2436 15.7322 83.2436 16.2284C83.2436 16.735 83.679 17.0298 84.2779 17.0298C84.4533 17.0477 84.6306 17.0298 84.7991 16.9772C84.9675 16.9246 85.1238 16.8383 85.2585 16.7235C85.3933 16.6087 85.5038 16.4677 85.5834 16.309C85.6631 16.1502 85.7103 15.9769 85.7222 15.7993V15.7993Z" fill="white"/>
<path d="M88.2651 15.0553C88.2651 13.2768 89.1712 12.15 90.5805 12.15C90.9291 12.1338 91.275 12.2181 91.5779 12.393C91.8808 12.5678 92.1281 12.8261 92.2909 13.1375H92.3732V10.0461H93.474V17.8721H92.4192V16.9828H92.3321C92.1567 17.2921 91.9007 17.5472 91.592 17.7203C91.2832 17.8934 90.9334 17.978 90.5805 17.9648C89.1615 17.9649 88.2651 16.8382 88.2651 15.0553ZM89.4023 15.0553C89.4023 16.2492 89.9599 16.9676 90.8926 16.9676C91.8204 16.9676 92.3938 16.2388 92.3938 15.0602C92.3938 13.8871 91.8144 13.148 90.8926 13.148C89.966 13.148 89.4022 13.8712 89.4022 15.0553H89.4023Z" fill="white"/>
<path d="M98.0283 15.0552C97.9932 14.6853 98.0352 14.3121 98.1514 13.9595C98.2677 13.607 98.4556 13.2828 98.7033 13.0078C98.951 12.7328 99.2529 12.5131 99.5896 12.3628C99.9264 12.2124 100.291 12.1348 100.659 12.1348C101.027 12.1348 101.391 12.2124 101.728 12.3628C102.065 12.5131 102.367 12.7328 102.614 13.0078C102.862 13.2828 103.05 13.607 103.166 13.9595C103.282 14.3121 103.324 14.6853 103.289 15.0552C103.325 15.4255 103.284 15.7992 103.168 16.1524C103.052 16.5056 102.864 16.8303 102.616 17.1058C102.368 17.3814 102.066 17.6015 101.729 17.7522C101.392 17.9029 101.027 17.9807 100.659 17.9807C100.29 17.9807 99.9255 17.9029 99.5884 17.7522C99.2513 17.6015 98.9492 17.3814 98.7015 17.1058C98.4537 16.8303 98.2659 16.5056 98.1499 16.1524C98.034 15.7992 97.9926 15.4255 98.0283 15.0552V15.0552ZM102.157 15.0552C102.157 13.8352 101.614 13.1217 100.661 13.1217C99.7037 13.1217 99.1654 13.8352 99.1654 15.0553C99.1654 16.2851 99.7038 16.9931 100.661 16.9931C101.614 16.9931 102.157 16.2802 102.157 15.0552Z" fill="white"/>
<path d="M104.766 12.2433H105.826V13.1375H105.908C106.048 12.8164 106.283 12.5471 106.582 12.3674C106.88 12.1876 107.226 12.1063 107.573 12.1347C107.844 12.1141 108.117 12.1554 108.37 12.2555C108.624 12.3556 108.851 12.512 109.037 12.7131C109.222 12.9141 109.361 13.1547 109.441 13.417C109.522 13.6793 109.543 13.9565 109.503 14.2282V17.8719H108.403V14.5071C108.403 13.6026 108.013 13.1528 107.199 13.1528C107.015 13.1441 106.831 13.1758 106.66 13.2455C106.489 13.3153 106.335 13.4216 106.208 13.5571C106.082 13.6926 105.986 13.8541 105.927 14.0305C105.868 14.2069 105.848 14.3941 105.867 14.5792V17.872H104.766V12.2433Z" fill="white"/>
<path d="M115.724 10.842V12.269H116.932V13.2047H115.724V16.099C115.724 16.6886 115.964 16.9468 116.512 16.9468C116.653 16.9463 116.793 16.9378 116.932 16.9211V17.8464C116.734 17.8821 116.534 17.9011 116.333 17.9032C115.109 17.9032 114.622 17.4686 114.622 16.3834V13.2047H113.736V12.269H114.622V10.842H115.724Z" fill="white"/>
<path d="M118.436 10.0461H119.527V13.148H119.614C119.76 12.8238 120.002 12.5531 120.306 12.3726C120.611 12.1922 120.963 12.1108 121.315 12.1397C121.585 12.1248 121.854 12.1703 122.105 12.2729C122.356 12.3754 122.581 12.5325 122.764 12.7329C122.948 12.9334 123.085 13.1722 123.166 13.4323C123.248 13.6925 123.271 13.9676 123.235 14.238V17.8721H122.134V14.5121C122.134 13.613 121.719 13.1577 120.941 13.1577C120.752 13.142 120.561 13.1683 120.383 13.2346C120.205 13.3009 120.044 13.4057 119.91 13.5416C119.776 13.6776 119.673 13.8413 119.609 14.0215C119.544 14.2017 119.52 14.3939 119.536 14.5847V17.8721H118.436L118.436 10.0461Z" fill="white"/>
<path d="M129.654 16.3524C129.504 16.8668 129.18 17.3118 128.739 17.6095C128.297 17.9072 127.765 18.0386 127.237 17.9808C126.87 17.9906 126.504 17.9196 126.167 17.7726C125.829 17.6257 125.528 17.4065 125.282 17.13C125.037 16.8536 124.855 16.5267 124.747 16.1719C124.64 15.8171 124.61 15.443 124.661 15.0755C124.612 14.7069 124.642 14.332 124.749 13.9762C124.856 13.6203 125.038 13.2919 125.281 13.013C125.525 12.7342 125.826 12.5115 126.162 12.36C126.499 12.2085 126.864 12.1317 127.232 12.1349C128.784 12.1349 129.721 13.2049 129.721 14.9724V15.36H125.782V15.4222C125.765 15.6288 125.79 15.8367 125.857 16.0326C125.924 16.2286 126.031 16.4082 126.171 16.56C126.311 16.7118 126.481 16.8325 126.67 16.9142C126.858 16.996 127.062 17.037 127.267 17.0347C127.531 17.0666 127.797 17.0188 128.034 16.8973C128.27 16.7758 128.465 16.5861 128.594 16.3523L129.654 16.3524ZM125.782 14.5384H128.599C128.613 14.3495 128.588 14.1598 128.524 13.9814C128.461 13.803 128.362 13.6399 128.233 13.5025C128.103 13.3652 127.947 13.2567 127.774 13.184C127.6 13.1113 127.414 13.076 127.226 13.0803C127.036 13.0779 126.847 13.114 126.671 13.1864C126.494 13.2588 126.334 13.3661 126.199 13.502C126.065 13.6379 125.958 13.7996 125.887 13.9776C125.815 14.1556 125.779 14.3463 125.782 14.5384H125.782Z" fill="white"/>
</svg>
