<svg width="150" height="41" viewBox="0 0 150 41" fill="none" xmlns="http://www.w3.org/2000/svg">
<path d="M22.5735 15.7405L22.2515 14.3811C22.0369 13.5225 21.9653 12.5566 21.9653 11.4476C21.9653 10.7679 22.0011 10.0524 22.1084 9.15808C22.2515 7.69135 22.9312 6.47504 24.1118 5.61647C26.8664 3.57736 31.195 4.29283 32.4471 4.57902C35.0228 5.11563 36.8473 6.90433 37.4197 9.44428C37.6343 10.4459 37.6701 11.4834 37.527 12.5924L37.3481 13.7014L36.2391 13.9876C32.3398 14.9892 28.19 15.5616 23.9329 15.6689L22.5735 15.7405ZM29.2632 7.65558C27.9396 7.65558 26.7948 7.906 26.1151 8.40683C25.7216 8.69302 25.5427 9.05076 25.4712 9.5516C25.3996 10.3028 25.3639 10.9468 25.3639 11.5192C25.3639 11.7696 25.3639 12.02 25.3639 12.2704C28.4046 12.0915 31.3739 11.698 34.2 11.0541C34.2 10.7679 34.1642 10.5175 34.0927 10.2671C33.8065 8.97922 33.0195 8.22796 31.7316 7.94177C30.9088 7.72713 30.0502 7.65558 29.2632 7.65558Z" fill="#FBB03B"/>
<path d="M18.2089 15.991L17.4219 15.9552C13.4868 15.8121 9.87359 14.9893 5.90268 13.9876L5.75959 13.9519L4.61482 13.451L4.40018 13.2722C3.43428 12.3778 2.79035 11.233 2.53993 9.98095C2.14642 7.97761 2.7188 5.90273 4.11399 4.436L6.36774 2.00337C8.72882 -0.536579 12.6997 -0.679674 15.2039 1.6814L19.3895 5.58076C21.2497 7.29791 21.8579 10.0525 20.9635 12.4136C20.6773 13.1648 20.248 13.8088 19.7114 14.4169L18.2089 15.991ZM6.86858 10.768C10.3387 11.6266 13.4868 12.342 16.778 12.5567L17.2072 12.0916C17.4577 11.8054 17.6365 11.5192 17.7796 11.1973C18.2089 10.124 17.9227 8.83619 17.0641 8.04916L12.9144 4.1498C11.7696 3.07659 9.94514 3.14813 8.87192 4.2929L6.61816 6.72553C5.97423 7.40523 5.72381 8.33535 5.90268 9.26547C6.01001 9.76631 6.22465 10.2314 6.58239 10.5891L6.86858 10.768Z" fill="#F7931E"/>
<path d="M40.1383 12.2346C40.1383 11.7696 40.1026 11.3045 40.0668 10.8395C40.031 10.3028 39.4944 9.98088 38.9936 10.124C38.8147 10.1955 38.6358 10.2313 38.457 10.3028C37.9203 10.4817 37.5984 10.9825 37.6342 11.5549C37.6699 11.8769 37.6699 12.2346 37.6699 12.5566C37.6699 12.7355 37.6699 12.9143 37.6699 13.0932C37.3837 22.3944 29.7639 29.8712 20.3554 29.8712C10.8037 29.8712 3.04079 22.144 3.04079 12.5924V12.5566C3.04079 11.7338 3.11234 10.911 3.21966 10.124C2.86192 10.0167 2.53996 9.87356 2.18222 9.76624C1.46674 9.51582 0.715491 9.98088 0.643943 10.7321C0.608169 11.0541 0.608169 11.3403 0.572395 11.6623C0.572395 11.9484 0.536621 12.2704 0.536621 12.5566C0.536621 23.5034 9.40855 32.3396 20.3196 32.3396C31.2306 32.3396 40.1026 23.4676 40.1026 12.5566C40.1383 12.4493 40.1383 12.342 40.1383 12.2346Z" fill="#1D7F39"/>
<path d="M20.3554 32.912C9.12235 32.912 0 23.7539 0 12.5566C0 12.1989 0 11.9127 0.0357739 11.6265C0.0357739 11.3045 0.0715478 10.9826 0.107322 10.6606C0.143096 10.124 0.429287 9.65895 0.894348 9.37276C1.35941 9.08657 1.89602 9.01502 2.39685 9.22966C2.71882 9.33698 3.07656 9.48008 3.39852 9.5874L3.82781 9.7305L3.75626 10.1956C3.64894 10.9468 3.57739 11.7338 3.57739 12.5566C3.61316 21.8221 11.1257 29.2988 20.3196 29.2988C29.4419 29.2988 36.7756 22.1798 37.0618 13.0575C37.0618 12.8786 37.0618 12.6997 37.0618 12.5566C37.0618 12.2347 37.0618 11.9127 37.026 11.5907C36.9902 10.7679 37.4553 10.0525 38.2423 9.76627C38.4212 9.69472 38.6 9.65895 38.7431 9.5874C39.1367 9.4443 39.6017 9.51585 39.9595 9.7305C40.3172 9.98091 40.5318 10.3387 40.6034 10.7679C40.6392 11.233 40.6749 11.7338 40.6749 12.1989C40.6749 12.3062 40.6749 12.4135 40.6749 12.5209C40.7107 23.7539 31.5884 32.912 20.3554 32.912ZM1.7887 10.2313C1.68137 10.2313 1.57405 10.2671 1.46673 10.3029C1.32363 10.4102 1.21631 10.5533 1.21631 10.7322C1.18054 11.0184 1.18054 11.3403 1.14477 11.6265C1.14477 11.9127 1.10899 12.1631 1.10899 12.5209C1.10899 23.1099 9.7305 31.7314 20.3196 31.7314C30.9087 31.7314 39.5302 23.1099 39.5302 12.5209C39.5302 12.4135 39.5302 12.3062 39.5302 12.1989C39.5302 11.7338 39.4944 11.2688 39.4586 10.8395C39.4586 10.7322 39.3871 10.6606 39.3513 10.6606C39.3155 10.6248 39.244 10.5891 39.1367 10.6248C38.9578 10.6964 38.7789 10.7322 38.6 10.8037C38.3139 10.911 38.135 11.1615 38.1708 11.4834C38.2065 11.8412 38.2065 12.1631 38.2065 12.5209C38.2065 12.6997 38.2065 12.8786 38.2065 13.0575C37.9203 22.788 30.0501 30.372 20.3196 30.372C10.4818 30.372 2.4684 22.3587 2.43263 12.5209C2.43263 11.8054 2.4684 11.0899 2.53995 10.446C2.3253 10.3744 2.14643 10.3029 1.93179 10.2313C1.93179 10.2313 1.86024 10.2313 1.7887 10.2313Z" fill="#1D7F39"/>
<path d="M30.3719 36.704C25.0416 40.2456 18.1014 40.2456 12.7353 36.704C11.9483 36.1674 11.6979 35.2373 12.163 34.7007C12.1987 34.6649 12.1987 34.6291 12.2345 34.5934C12.6996 34.0568 13.5581 34.021 14.2021 34.4503C18.638 37.3837 24.4334 37.3837 28.8694 34.4503C29.5133 34.021 30.3719 34.0568 30.8369 34.5934C30.8727 34.6291 30.8727 34.6649 30.9085 34.7007C31.3735 35.2015 31.1589 36.1674 30.3719 36.704Z" fill="#1D7F39"/>
<path d="M21.5359 40.1025C18.3163 40.1025 15.0966 39.1724 12.3062 37.3122C11.6981 36.9187 11.2688 36.2747 11.1973 35.6308C11.1257 35.0942 11.2688 34.5934 11.5908 34.1999L11.6623 34.0925C12.342 33.2697 13.6299 33.1624 14.5958 33.8063C18.8171 36.5967 24.219 36.5967 28.4403 33.8063C29.4419 33.1624 30.694 33.2697 31.4095 34.0925L31.5168 34.1999C31.8388 34.5576 31.9819 35.0942 31.9103 35.6308C31.803 36.3105 31.4095 36.9187 30.8014 37.3122C27.9752 39.1724 24.7556 40.1025 21.5359 40.1025ZM13.2364 34.9153C13.0575 34.9153 12.9144 34.9869 12.8071 35.0942L12.7355 35.1658C12.664 35.2373 12.664 35.3804 12.664 35.4162C12.6998 35.595 12.8071 35.8455 13.129 36.0601C18.2447 39.4228 24.8271 39.4228 29.907 36.0601C30.1932 35.8455 30.3363 35.595 30.3721 35.4162C30.3721 35.3446 30.3721 35.2373 30.3363 35.1658L30.2647 35.0942C30.0501 34.8438 29.6208 34.8438 29.2631 35.0942C24.5409 38.2065 18.4594 38.2065 13.773 35.0942C13.6299 34.9869 13.4152 34.9153 13.2364 34.9153Z" fill="#1D7F39"/>
<path d="M40.1384 11.2331V12.199C39.3514 12.521 38.5286 12.7714 37.67 13.0576C36.7757 13.3438 35.8813 13.5942 34.9512 13.8088C31.2307 14.739 27.2241 15.3113 23.0027 15.4544C22.3588 15.4902 21.7149 15.4902 21.1067 15.4902C20.2839 15.4902 19.4969 15.4902 18.7099 15.4544C14.7747 15.3113 11.0185 14.7747 7.54841 13.8804C6.01013 13.4869 4.50763 13.0576 3.07667 12.5567C2.50429 12.3421 1.96768 12.1632 1.3953 11.9486C0.930234 11.7697 0.644043 11.3404 0.644043 10.8396C0.644043 10.8038 0.644043 10.768 0.644043 10.7323V10.625C0.751365 10.0526 1.2522 9.65906 1.78881 9.65906C1.9319 9.65906 2.075 9.69483 2.2181 9.73061C2.32542 9.76638 2.43274 9.80215 2.50429 9.83793C2.50429 9.83793 2.50429 9.83793 2.54006 9.83793C2.7547 9.90948 2.96935 9.98102 3.18399 10.0526C3.89947 10.303 4.65072 10.5534 5.40197 10.768C10.0168 12.1632 15.1325 12.9503 20.5701 12.986C20.749 12.986 20.9279 12.986 21.1067 12.986C21.6791 12.986 22.2515 12.986 22.7881 12.9503C27.0452 12.8429 31.1234 12.2706 34.8797 11.3047C35.8098 11.09 36.7041 10.8396 37.5627 10.5534L38.7075 10.1599C38.7433 10.1599 38.779 10.1599 38.8148 10.1241C39.3514 9.98102 39.888 10.303 40.1027 10.8038C40.1384 10.9827 40.1384 11.1258 40.1384 11.2331Z" fill="#1D7F39"/>
<path d="M21.1065 16.0983C20.2479 16.0983 19.4251 16.0983 18.6739 16.0626C14.7745 15.9195 10.9825 15.3829 7.3693 14.4885C5.83102 14.095 4.29274 13.6657 2.82601 13.1291C2.21785 12.9145 1.64547 12.6998 1.14464 12.4852C0.464931 12.2348 0.0356445 11.5908 0.0356445 10.8754C0.0356445 10.8396 0.0356445 10.768 0.0356445 10.7323L0.0714184 10.5892C0.214514 9.73059 0.965766 9.1582 1.78857 9.1582C2.00321 9.1582 2.21785 9.19398 2.39672 9.26552C2.50404 9.3013 2.57559 9.33707 2.68291 9.37285C2.93333 9.44439 3.14797 9.55172 3.36262 9.62326C4.14964 9.90945 4.86512 10.1241 5.54483 10.303C10.2312 11.6982 15.2753 12.4136 20.5341 12.4494C21.2853 12.4494 22.0008 12.4494 22.7521 12.4136C26.9018 12.3063 30.9085 11.7697 34.7363 10.8038C35.5949 10.5892 36.4893 10.3387 37.3836 10.0526L38.4926 9.69481C38.5284 9.69481 38.5999 9.65904 38.6357 9.65904L38.743 9.62326C39.4943 9.48017 40.2455 9.87368 40.5675 10.5534L40.6033 10.6965V10.7323V10.768C40.639 10.9111 40.6748 11.09 40.6748 11.2331V12.5567L40.3171 12.7356C39.5658 13.0218 38.743 13.308 37.8129 13.5942C36.9185 13.8804 35.9884 14.1308 35.0583 14.3812C31.2305 15.3471 27.1523 15.9195 23.0025 16.0268C22.4301 16.0626 21.822 16.0983 21.1065 16.0983ZM1.21618 10.8396C1.21618 11.1258 1.35928 11.3404 1.6097 11.4477C2.11053 11.6624 2.64714 11.8412 3.2553 12.0559C4.68625 12.5567 6.18876 12.986 7.69126 13.3795C11.2329 14.2381 14.9534 14.7747 18.7454 14.9178C19.4967 14.9536 20.2837 14.9536 21.1423 14.9536C21.822 14.9536 22.4659 14.9536 23.0383 14.9178C27.1165 14.7747 31.1232 14.2381 34.8437 13.308C35.738 13.0933 36.6324 12.8429 37.5267 12.5567C38.278 12.3063 38.9577 12.0917 39.6016 11.8412V11.2689C39.6016 11.2331 39.6016 11.2331 39.6016 11.1973L39.53 11.1258V10.9827C39.4227 10.768 39.2081 10.6607 38.9577 10.7323L38.8503 10.768L37.7413 11.1258C36.8112 11.412 35.9169 11.6624 35.0225 11.877C31.1589 12.8429 27.0449 13.4153 22.8236 13.5226C22.0724 13.5584 21.3211 13.5584 20.5699 13.5584C15.2038 13.5226 10.0523 12.7714 5.29441 11.3762C4.57893 11.1615 3.86345 10.9469 3.04065 10.6607C2.82601 10.5892 2.61137 10.5176 2.39672 10.4103C2.25363 10.3745 2.14631 10.3387 2.03898 10.303C1.96744 10.2672 1.89589 10.2672 1.82434 10.2672C1.53815 10.2672 1.28773 10.4818 1.21618 10.768V10.8396Z" fill="#1D7F39"/>
<path d="M51.4429 31.1234V14.3455C51.4429 13.7015 52.0153 13.1649 52.6592 13.1649H60.8156C61.4596 13.1649 62.0319 13.7015 62.0319 14.3455C62.0319 14.9894 61.4596 15.526 60.8156 15.526H53.8755V21.8222H58.3472C59.0269 21.8222 59.5993 22.3946 59.5993 23.0385C59.5993 23.6824 59.0269 24.2191 58.3472 24.2191H53.8755V31.1234C53.8755 31.7673 53.3031 32.304 52.6234 32.304C52.0153 32.304 51.4429 31.8031 51.4429 31.1234Z" fill="#1D7F39"/>
<path d="M52.6593 32.8763C51.6934 32.8763 50.8706 32.0893 50.8706 31.1234V14.3454C50.8706 13.3796 51.6576 12.5925 52.6593 12.5925H60.8158C61.7817 12.5925 62.6045 13.3796 62.6045 14.3454C62.6045 15.3113 61.8174 16.0984 60.8158 16.0984H54.448V21.2498H58.3474C59.349 21.2498 60.1718 22.0726 60.1718 23.0385C60.1718 24.0044 59.349 24.7914 58.3474 24.7914H54.448V31.1234C54.448 32.0893 53.661 32.8763 52.6593 32.8763ZM52.6593 13.7373C52.3016 13.7373 52.0154 14.0235 52.0154 14.3454V31.1234C52.0154 31.4454 52.3016 31.7316 52.6593 31.7316C53.0528 31.7316 53.339 31.4454 53.339 31.1234V23.6467H58.3831C58.7766 23.6467 59.0628 23.3605 59.0628 23.0385C59.0628 22.6808 58.7409 22.3946 58.3831 22.3946H53.339V14.9894H60.8158C61.1735 14.9894 61.4597 14.7032 61.4597 14.3812C61.4597 14.0593 61.1735 13.7731 60.8158 13.7731H52.6593V13.7373Z" fill="#1D7F39"/>
<path d="M63.105 25.7931C63.105 22.1799 66.1458 19.2107 69.8305 19.2107C73.551 19.2107 76.5917 22.1799 76.5917 25.7931C76.5917 29.4063 73.551 32.3397 69.8305 32.3397C66.1458 32.3039 63.105 29.4063 63.105 25.7931ZM74.1233 25.7931C74.1233 23.5036 72.1916 21.6075 69.8305 21.6075C67.4694 21.6075 65.5734 23.5036 65.5734 25.7931C65.5734 28.0826 67.4694 29.9786 69.8305 29.9786C72.1916 29.9786 74.1233 28.0826 74.1233 25.7931Z" fill="#1D7F39"/>
<path d="M69.8305 32.8763C65.8238 32.8763 62.5684 29.6925 62.5684 25.7573C62.5684 21.8222 65.8238 18.6025 69.8305 18.6025C73.8729 18.6025 77.1283 21.8222 77.1283 25.7573C77.1283 29.6925 73.8729 32.8763 69.8305 32.8763ZM69.8305 19.7473C66.4319 19.7473 63.6774 22.4303 63.6774 25.7573C63.6774 29.0485 66.4319 31.7316 69.8305 31.7316C73.229 31.7316 76.0193 29.0485 76.0193 25.7573C76.0193 22.4661 73.229 19.7473 69.8305 19.7473ZM69.8305 30.5153C67.1832 30.5153 65.001 28.4046 65.001 25.7573C65.001 23.1458 67.1474 20.9994 69.8305 20.9994C72.5135 20.9994 74.6957 23.1101 74.6957 25.7573C74.6599 28.4046 72.5135 30.5153 69.8305 30.5153ZM69.8305 22.1799C67.7913 22.1799 66.1457 23.7898 66.1457 25.7931C66.1457 27.7964 67.7913 29.4063 69.8305 29.4063C71.8696 29.4063 73.5509 27.7964 73.5509 25.7931C73.5509 23.7898 71.8696 22.1799 69.8305 22.1799Z" fill="#1D7F39"/>
<path d="M79.7758 25.793C79.7758 22.1798 82.8166 19.2106 86.5013 19.2106C90.2218 19.2106 93.2626 22.1798 93.2626 25.793C93.2626 29.4061 90.2218 32.3396 86.5013 32.3396C82.8166 32.3038 79.7758 29.4061 79.7758 25.793ZM90.7942 25.793C90.7942 23.5034 88.8624 21.6074 86.5013 21.6074C84.1402 21.6074 82.2442 23.5034 82.2442 25.793C82.2442 28.0825 84.1402 29.9785 86.5013 29.9785C88.8624 29.9427 90.7942 28.0825 90.7942 25.793Z" fill="#1D7F39"/>
<path d="M86.5013 32.8762C82.4946 32.8762 79.2392 29.6923 79.2392 25.7572C79.2392 21.8221 82.4946 18.6024 86.5013 18.6024C90.5438 18.6024 93.7992 21.8221 93.7992 25.7572C93.7992 29.6923 90.5438 32.8762 86.5013 32.8762ZM86.5013 19.7472C83.1028 19.7472 80.3482 22.4302 80.3482 25.7572C80.3482 29.0484 83.1028 31.7314 86.5013 31.7314C89.8998 31.7314 92.6902 29.0484 92.6902 25.7572C92.6902 22.466 89.8998 19.7472 86.5013 19.7472ZM86.5013 30.5151C83.854 30.5151 81.6718 28.4045 81.6718 25.7572C81.6718 23.1457 83.8183 20.9993 86.5013 20.9993C89.1844 20.9993 91.3666 23.1099 91.3666 25.7572C91.3666 28.4045 89.1844 30.5151 86.5013 30.5151ZM86.5013 22.1798C84.4622 22.1798 82.8166 23.7896 82.8166 25.793C82.8166 27.7963 84.4622 29.4061 86.5013 29.4061C88.5404 29.4061 90.2218 27.7963 90.2218 25.793C90.2218 23.7896 88.5404 22.1798 86.5013 22.1798Z" fill="#1D7F39"/>
<path d="M96.4819 25.7931C96.4819 22.1799 99.4869 19.2107 103.207 19.2107C104.853 19.2107 106.32 19.8189 107.5 20.749V14.3455C107.5 13.7015 108.037 13.1649 108.717 13.1649C109.396 13.1649 109.933 13.7015 109.933 14.3455V25.7573C109.933 29.3705 106.928 32.304 103.207 32.304C99.4512 32.304 96.4819 29.4063 96.4819 25.7931ZM107.465 25.7931C107.465 23.5036 105.533 21.6076 103.172 21.6076C100.811 21.6076 98.8788 23.5036 98.8788 25.7931C98.8788 28.0826 100.811 29.9787 103.172 29.9787C105.533 29.9429 107.465 28.0826 107.465 25.7931Z" fill="#1D7F39"/>
<path d="M103.172 32.8763C99.1651 32.8763 95.9097 29.6925 95.9097 25.7573C95.9097 21.8222 99.1651 18.6025 103.172 18.6025C104.495 18.6025 105.747 18.9603 106.892 19.64V14.3454C106.892 13.3796 107.679 12.5925 108.681 12.5925C109.683 12.5925 110.47 13.3438 110.47 14.3454V25.7573C110.47 29.6925 107.178 32.8763 103.172 32.8763ZM103.172 19.7473C99.7732 19.7473 97.0187 22.4304 97.0187 25.7573C97.0187 29.0485 99.7732 31.7316 103.172 31.7316C106.57 31.7316 109.325 29.0485 109.325 25.7573V14.3454C109.325 13.9877 109.039 13.7373 108.681 13.7373C108.323 13.7373 108.037 14.0235 108.037 14.3454V21.8937L107.107 21.1783C105.962 20.2481 104.603 19.7473 103.172 19.7473ZM103.172 30.5153C100.489 30.5153 98.3065 28.4046 98.3065 25.7573C98.3065 23.1458 100.489 20.9994 103.172 20.9994C105.855 20.9994 108.037 23.1101 108.037 25.7573C108.037 28.4046 105.855 30.5153 103.172 30.5153ZM103.172 22.1799C101.133 22.1799 99.4513 23.7898 99.4513 25.7931C99.4513 27.7964 101.133 29.4063 103.172 29.4063C105.211 29.4063 106.892 27.7964 106.892 25.7931C106.892 23.7898 105.211 22.1799 103.172 22.1799Z" fill="#1D7F39"/>
<path d="M130.145 31.1234V24.4337C130.145 22.8596 128.857 21.6076 127.248 21.6076C125.638 21.6076 124.35 22.8596 124.35 24.4337V31.1234C124.35 31.7673 123.777 32.304 123.098 32.304C122.418 32.304 121.881 31.7673 121.881 31.1234V24.4337C121.881 22.8596 120.594 21.6076 118.984 21.6076C117.374 21.6076 116.086 22.8596 116.086 24.4337V31.1234C116.086 31.7673 115.549 32.304 114.87 32.304C114.19 32.304 113.618 31.7673 113.618 31.1234V20.3912C113.618 19.7473 114.19 19.1749 114.87 19.1749C115.406 19.1749 115.871 19.5684 116.015 20.0335C116.873 19.4969 117.875 19.1749 118.984 19.1749C120.629 19.1749 122.132 19.9262 123.098 21.1067C124.099 19.962 125.566 19.1749 127.248 19.1749C130.181 19.1749 132.578 21.5002 132.578 24.3979V31.1234C132.578 31.7673 132.041 32.304 131.362 32.304C130.682 32.304 130.145 31.8031 130.145 31.1234Z" fill="#1D7F39"/>
<path d="M131.362 32.8763C130.36 32.8763 129.573 32.1251 129.573 31.1234V24.4337C129.573 23.1816 128.536 22.1799 127.248 22.1799C125.96 22.1799 124.922 23.1816 124.922 24.4337V31.1234C124.922 32.0893 124.1 32.8763 123.098 32.8763C122.096 32.8763 121.309 32.1251 121.309 31.1234V24.4337C121.309 23.1816 120.272 22.1799 118.984 22.1799C117.696 22.1799 116.659 23.1816 116.659 24.4337V31.1234C116.659 32.0893 115.872 32.8763 114.87 32.8763C113.868 32.8763 113.045 32.0893 113.045 31.1234V20.3912C113.045 19.4253 113.868 18.6025 114.87 18.6025C115.406 18.6025 115.907 18.853 116.229 19.2822C117.124 18.853 118.018 18.6025 118.984 18.6025C120.522 18.6025 121.989 19.2107 123.098 20.2481C124.243 19.1749 125.709 18.6025 127.248 18.6025C130.503 18.6025 133.15 21.214 133.15 24.3979V31.1234C133.115 32.1251 132.363 32.8763 131.362 32.8763ZM127.248 21.0352C129.144 21.0352 130.718 22.5377 130.718 24.4337V31.1234C130.718 31.4811 131.004 31.7316 131.362 31.7316C131.719 31.7316 132.006 31.4811 132.006 31.1234V24.4337C132.006 21.858 129.859 19.7831 127.248 19.7831C125.852 19.7831 124.493 20.427 123.527 21.5002L123.098 22.0011L122.669 21.5002C121.774 20.427 120.379 19.7831 118.984 19.7831C118.054 19.7831 117.159 20.0335 116.301 20.5701L115.657 20.9636L115.442 20.2481C115.371 19.9977 115.12 19.7831 114.834 19.7831C114.476 19.7831 114.154 20.105 114.154 20.427V31.1592C114.154 31.5169 114.476 31.7673 114.834 31.7673C115.192 31.7673 115.478 31.4811 115.478 31.1592V24.4337C115.478 22.5734 117.016 21.0352 118.948 21.0352C120.88 21.0352 122.418 22.5377 122.418 24.4337V31.1234C122.418 31.4811 122.704 31.7316 123.062 31.7316C123.456 31.7316 123.742 31.4454 123.742 31.1234V24.4337C123.778 22.5377 125.352 21.0352 127.248 21.0352Z" fill="#1D7F39"/>
<path d="M135.941 25.793C135.941 22.1798 138.982 19.2106 142.666 19.2106C146.387 19.2106 149.428 22.1798 149.428 25.793C149.428 29.4061 146.387 32.3396 142.666 32.3396C138.982 32.3038 135.941 29.4061 135.941 25.793ZM146.959 25.793C146.959 23.5034 145.027 21.6074 142.666 21.6074C140.305 21.6074 138.409 23.5034 138.409 25.793C138.409 28.0825 140.305 29.9785 142.666 29.9785C145.027 29.9785 146.959 28.0825 146.959 25.793Z" fill="#1D7F39"/>
<path d="M142.666 32.8762C138.66 32.8762 135.404 29.6923 135.404 25.7572C135.404 21.8221 138.66 18.6024 142.666 18.6024C146.709 18.6024 149.964 21.8221 149.964 25.7572C150 29.6923 146.709 32.8762 142.666 32.8762ZM142.666 19.7472C139.268 19.7472 136.513 22.4302 136.513 25.7572C136.513 29.0484 139.268 31.7314 142.666 31.7314C146.065 31.7314 148.855 29.0484 148.855 25.7572C148.855 22.466 146.065 19.7472 142.666 19.7472ZM142.666 30.5151C140.019 30.5151 137.837 28.4045 137.837 25.7572C137.837 23.1457 139.983 20.9993 142.666 20.9993C145.349 20.9993 147.532 23.1099 147.532 25.7572C147.532 28.4045 145.349 30.5151 142.666 30.5151ZM142.666 22.1798C140.627 22.1798 138.982 23.7896 138.982 25.793C138.982 27.7963 140.627 29.4061 142.666 29.4061C144.705 29.4061 146.387 27.7963 146.387 25.793C146.387 23.7896 144.705 22.1798 142.666 22.1798Z" fill="#1D7F39"/>
</svg>
