<svg width="175" height="47" viewBox="0 0 175 47" fill="none" xmlns="http://www.w3.org/2000/svg">
<path d="M26.3182 18.4737L25.9933 16.8418C25.7334 15.8626 25.6684 14.6876 25.6684 13.3821C25.6684 12.5987 25.7334 11.7501 25.7984 10.7057C25.9933 9.00844 26.7731 7.57233 28.1378 6.52789C31.3869 4.17789 36.3906 4.96122 37.8853 5.28761C40.8745 5.94039 43.0189 8.02928 43.6688 11.0321C43.9287 12.2071 43.9937 13.4473 43.7987 14.6876L43.6038 15.9932L42.3041 16.3196C37.7553 17.4946 32.8815 18.1473 27.9428 18.2779L26.3182 18.4737ZM34.1162 8.94317C32.5566 8.94317 31.257 9.26956 30.4772 9.79178C30.0223 10.1182 29.7623 10.5098 29.7623 11.0973C29.6974 12.0112 29.6324 12.7293 29.6324 13.3821C29.6324 13.7084 29.6324 13.9696 29.6324 14.2307C33.2065 14.0348 36.6506 13.5126 39.9647 12.7946C39.9647 12.4682 39.8997 12.1418 39.8348 11.8807C39.5098 10.3793 38.6001 9.46539 37.1055 9.139C36.0657 9.07372 35.091 8.94317 34.1162 8.94317Z" fill="#FBB03B"/>
<path d="M21.2495 18.7348L20.3398 18.6695C15.726 18.4737 11.502 17.4945 6.88823 16.3848L6.69328 16.3195L5.39361 15.732L5.13368 15.5362C4.02896 14.4917 3.24916 13.1862 2.98923 11.6848C2.53435 9.33478 3.18418 6.9195 4.80876 5.22228L7.47308 2.35006C10.2024 -0.652722 14.8162 -0.783277 17.7404 1.95839L22.6142 6.52783C24.7586 8.55144 25.5384 11.7501 24.4337 14.557C24.1088 15.4056 23.5889 16.1889 23.0041 16.907L21.2495 18.7348ZM8.05793 12.5987C12.0869 13.5778 15.7909 14.4264 19.625 14.6876L20.1448 14.1653C20.4048 13.8389 20.6647 13.5126 20.7947 13.1209C21.3145 11.8806 20.9246 10.3792 19.9499 9.46533L15.0761 4.89589C13.7115 3.65561 11.632 3.72089 10.3323 5.09172L7.66803 7.96394C6.95321 8.74728 6.62829 9.857 6.82324 10.9667C6.95321 11.5542 7.21314 12.0764 7.60304 12.5334L8.05793 12.5987Z" fill="#F7931E"/>
<path d="M46.853 14.2957C46.853 13.7082 46.788 13.186 46.788 12.6638C46.723 12.011 46.0732 11.6194 45.4883 11.8152C45.2934 11.8805 45.0984 11.9457 44.9035 12.011C44.3186 12.2069 43.9287 12.7944 43.9287 13.4471C43.9287 13.8388 43.9937 14.2305 43.9937 14.6221C43.9937 14.818 43.9937 15.0138 43.9937 15.2749C43.6688 26.1763 34.7661 34.9235 23.7839 34.9235C12.6068 34.9235 3.57411 25.8499 3.57411 14.6874V14.6221C3.57411 13.643 3.63909 12.7291 3.76906 11.7499C3.37916 11.6194 2.98926 11.4888 2.59936 11.293C1.75458 10.9666 0.909794 11.5541 0.779827 12.4027C0.714844 12.7944 0.714844 13.1207 0.714844 13.5124C0.714844 13.8388 0.714844 14.2305 0.714844 14.5569C0.714844 27.3513 11.0472 37.7305 23.7839 37.7305C36.5206 37.7305 46.853 27.3513 46.853 14.5569C46.853 14.5569 46.853 14.4263 46.853 14.2957Z" fill="white"/>
<path d="M23.7189 38.5791C10.6573 38.5791 0 27.8736 0 14.6875C0 14.2958 0 13.9041 0 13.5777C0 13.1861 0.0649833 12.8597 0.0649833 12.468C0.129967 11.8152 0.454883 11.293 0.974749 10.9666C1.49462 10.6402 2.14445 10.575 2.7293 10.7708C3.1192 10.9014 3.5091 11.0319 3.899 11.2277L4.41886 11.4236L4.35388 11.9458C4.22391 12.8597 4.15893 13.7736 4.15893 14.6875C4.15893 25.5236 12.9317 34.3361 23.7189 34.3361C34.3762 34.3361 42.954 25.9805 43.2789 15.3402C43.2789 15.1444 43.2789 14.9486 43.2789 14.7527C43.2789 14.3611 43.2789 13.9694 43.2139 13.5777C43.1489 12.5986 43.7338 11.75 44.6435 11.4889C44.8385 11.4236 45.0334 11.3583 45.2284 11.293C45.6833 11.0972 46.2031 11.1625 46.658 11.4889C47.0479 11.75 47.3728 12.2069 47.3728 12.7291C47.4378 13.3166 47.4378 13.8389 47.4378 14.4264C47.4378 14.5569 47.4378 14.6875 47.4378 14.818C47.5028 27.8736 36.8455 38.5791 23.7189 38.5791ZM2.07947 12.0111C1.9495 12.0111 1.81953 12.0764 1.75455 12.1416C1.5596 12.2722 1.49462 12.468 1.42963 12.6639C1.42963 12.9902 1.36465 13.3819 1.36465 13.7083C1.36465 14.0347 1.36465 14.3611 1.36465 14.7527C1.29967 27.1555 11.3721 37.2083 23.7189 37.2083C36.0657 37.2083 46.1381 27.0902 46.1381 14.6875C46.1381 14.5569 46.1381 14.4264 46.1381 14.2958C46.1381 13.7736 46.0732 13.2514 46.0732 12.6639C46.0732 12.5333 46.0082 12.468 45.9432 12.468C45.8782 12.468 45.8132 12.4027 45.6833 12.468C45.4883 12.5333 45.2934 12.5986 45.0984 12.6639C44.7735 12.7944 44.5785 13.1208 44.5785 13.4472C44.5785 13.8389 44.6435 14.2958 44.6435 14.6875C44.6435 14.8833 44.6435 15.1444 44.6435 15.3402C44.2536 26.7639 35.091 35.6416 23.7189 35.6416C12.2169 35.6416 2.85926 26.2416 2.85926 14.7527C2.85926 13.9041 2.92425 13.1208 2.98923 12.2722C2.7293 12.2069 2.53435 12.0764 2.27442 12.0111C2.27442 12.0111 2.14445 12.0111 2.07947 12.0111Z" fill="white"/>
<path d="M35.4159 43.0181C29.1775 47.1306 21.0546 47.1306 14.8812 43.0181C13.9715 42.4306 13.7115 41.3209 14.2314 40.6681C14.2314 40.6028 14.2964 40.6028 14.2964 40.5375C14.8162 39.8848 15.856 39.8848 16.5708 40.407C21.7695 43.8667 28.5277 43.8667 33.6614 40.407C34.4412 39.8848 35.4159 39.95 35.9358 40.5375C35.9358 40.6028 36.0008 40.6028 36.0008 40.6681C36.5856 41.2556 36.3257 42.3653 35.4159 43.0181Z" fill="white"/>
<path d="M25.1486 47C21.3795 47 17.6755 45.8902 14.3613 43.7361C13.6465 43.2791 13.1916 42.5611 13.0617 41.7777C12.9967 41.125 13.1267 40.5375 13.5166 40.0805L13.5815 39.95C14.3613 39.0361 15.856 38.8402 17.0257 39.6236C21.8994 42.8875 28.2678 42.8875 33.1415 39.6236C34.3112 38.8402 35.8058 38.9708 36.5856 39.95L36.7156 40.0805C37.1055 40.5375 37.2355 41.125 37.1705 41.7125C37.0405 42.4958 36.5856 43.2139 35.8708 43.6708C32.6216 45.8902 28.8526 47 25.1486 47ZM15.4661 40.9291C15.2711 40.9291 15.0762 40.9944 14.9462 41.125L14.8812 41.1902C14.8162 41.3208 14.8162 41.4514 14.8162 41.5166C14.8162 41.7125 15.0112 42.0389 15.3361 42.3C21.3146 46.2819 28.9826 46.2819 34.8961 42.3C35.221 42.0389 35.4159 41.7777 35.4159 41.5166C35.4159 41.4514 35.4159 41.3208 35.3509 41.2555V41.125C35.091 40.8639 34.6361 40.8639 34.1812 41.125C28.7226 44.7805 21.5745 44.7805 16.1159 41.125C15.9209 40.9944 15.661 40.9291 15.4661 40.9291Z" fill="white"/>
<path d="M46.853 13.186V14.2957C45.9432 14.6874 44.9684 15.0138 43.9937 15.2749C42.954 15.6013 41.9142 15.9277 40.8095 16.1888C36.4556 17.2985 31.7768 17.9513 26.9031 18.0819C26.1883 18.0819 25.4085 18.1471 24.6937 18.1471C23.7189 18.1471 22.8091 18.1471 21.8994 18.0819C17.2856 17.886 12.9317 17.2332 8.83773 16.2541C7.0182 15.7971 5.26365 15.2749 3.63907 14.6874C2.98924 14.4263 2.3394 14.2305 1.68957 13.9694C1.1697 13.7735 0.844788 13.2513 0.844788 12.6638C0.844788 12.5985 0.844788 12.5985 0.844788 12.5332V12.4027C0.974754 11.7499 1.5596 11.293 2.20944 11.293C2.40439 11.293 2.53435 11.293 2.7293 11.3582C2.85927 11.4235 2.98924 11.4235 3.05422 11.4888C3.24917 11.6846 3.5091 11.7499 3.76904 11.8152C4.61382 12.0763 5.4586 12.4027 6.36837 12.6638C11.697 14.2305 17.7404 15.1444 24.0438 15.2096C24.2388 15.2096 24.4337 15.2096 24.6937 15.2096C25.3435 15.2096 25.9933 15.2096 26.6432 15.2096C31.6469 15.0791 36.3906 14.4263 40.7445 13.3166C41.7843 13.0555 42.824 12.7291 43.8637 12.4027L45.1634 11.9457C45.2284 11.9457 45.2284 11.9457 45.2934 11.9457C45.9432 11.8152 46.593 12.1416 46.788 12.7291C46.788 12.8596 46.853 13.0555 46.853 13.186Z" fill="white"/>
<path d="M24.6287 18.8653C23.589 18.8653 22.6792 18.8653 21.7694 18.8C17.2206 18.6042 12.8017 18.0167 8.57781 16.9722C6.75828 16.5153 5.00373 15.9931 3.31417 15.4056C2.59935 15.1445 1.94952 14.8833 1.36467 14.6875C0.584869 14.3611 0.0650024 13.6431 0.0650024 12.7945C0.0650024 12.7292 0.0650024 12.6639 0.0650024 12.5986V12.4028C0.259952 11.4236 1.10474 10.7056 2.07948 10.7056C2.33942 10.7056 2.59935 10.7708 2.7943 10.8361C2.92427 10.9014 2.98925 10.9014 3.11922 10.9667C3.37915 11.0972 3.63908 11.1625 3.89902 11.2278C4.80878 11.5542 5.65356 11.8153 6.43336 12.0764C11.892 13.7083 17.8054 14.557 23.9139 14.6222C24.8236 14.6222 25.6684 14.6222 26.5132 14.6222C31.322 14.4917 36.0657 13.8389 40.4846 12.7292C41.5243 12.4681 42.5641 12.207 43.6038 11.8806L44.9035 11.4236C44.9685 11.4236 45.0334 11.4236 45.0334 11.3583H45.1634C46.0082 11.1625 46.918 11.6195 47.3079 12.4681L47.3728 12.5986V12.6639V12.7292C47.4378 12.925 47.4378 13.1208 47.4378 13.3167V14.8833L46.9829 15.0792C46.0732 15.4056 45.0984 15.732 44.0587 16.1236C43.019 16.45 41.9142 16.7764 40.8745 17.0375C36.3907 18.1472 31.6469 18.8 26.7731 18.9958C26.1883 18.8653 25.4735 18.8653 24.6287 18.8653ZM1.42965 12.6639C1.42965 12.6639 1.42965 12.7292 1.42965 12.6639C1.42965 12.9903 1.6246 13.2514 1.88453 13.382C2.46938 13.6431 3.11922 13.8389 3.76905 14.1C5.45862 14.6875 7.14818 15.2097 8.90273 15.6667C12.9967 16.7111 17.3506 17.2986 21.8344 17.4945C22.7442 17.5597 23.6539 17.5597 24.6287 17.5597C25.4085 17.5597 26.1883 17.5597 26.8381 17.4945C31.5819 17.3639 36.2607 16.7111 40.6146 15.6014C41.6543 15.3403 42.694 15.0139 43.7338 14.6875C44.5786 14.4264 45.4233 14.1653 46.1382 13.8389V13.1861V13.1208L46.0732 13.0556V12.925C45.9432 12.6639 45.6833 12.5333 45.4233 12.5986H45.2934L43.9937 13.0556C42.954 13.382 41.8493 13.7083 40.8095 13.9695C36.2607 15.1445 31.5169 15.7972 26.5782 15.9278C25.7334 15.9278 24.8236 15.9931 23.9789 15.9278C17.7405 15.8625 11.697 15.0139 6.17343 13.382C5.32865 13.1208 4.48387 12.8597 3.5741 12.5333C3.24918 12.4028 2.98925 12.2722 2.7943 12.207C2.66433 12.1417 2.53437 12.1417 2.4044 12.0764C2.33942 12.0764 2.27443 12.0111 2.14447 12.0111C1.81955 12.0111 1.49463 12.2722 1.42965 12.5986V12.6639Z" fill="white"/>
<path d="M59.9796 36.4904V16.8418C59.9796 16.0584 60.6294 15.4709 61.4092 15.4709H70.9618C71.7416 15.4709 72.3914 16.0584 72.3914 16.8418C72.3914 17.6251 71.7416 18.2126 70.9618 18.2126H62.9039V25.5237H68.1025C68.8823 25.5237 69.5322 26.1765 69.5322 26.9598C69.5322 27.7432 68.8823 28.3307 68.1025 28.3307H62.9039V36.4251C62.9039 37.2084 62.254 37.7959 61.4742 37.7959C60.6944 37.8612 59.9796 37.2737 59.9796 36.4904Z" fill="white"/>
<path d="M61.4092 38.5139C60.2395 38.5139 59.3298 37.6001 59.3298 36.4903V16.8417C59.3298 15.732 60.2395 14.8181 61.4092 14.8181H70.9618C72.1315 14.8181 73.0412 15.732 73.0412 16.8417C73.0412 17.9514 72.1315 18.8653 70.9618 18.8653H63.5537V24.8709H68.1025C69.2722 24.8709 70.247 25.8501 70.247 26.9598C70.247 28.0695 69.2722 28.9834 68.1025 28.9834H63.5537V36.4251C63.5537 37.6001 62.5789 38.5139 61.4092 38.5139ZM61.4092 16.1237C61.0193 16.1237 60.6294 16.4501 60.6294 16.8417V36.4903C60.6294 36.882 60.9544 37.2084 61.4092 37.2084C61.8641 37.2084 62.189 36.882 62.189 36.4903V27.6778H68.0375C68.4924 27.6778 68.8173 27.3514 68.8173 26.9598C68.8173 26.5681 68.4274 26.1764 68.0375 26.1764H62.189V17.5598H70.9618C71.3517 17.5598 71.7416 17.2334 71.7416 16.8417C71.7416 16.4501 71.4167 16.1237 70.9618 16.1237H61.4092Z" fill="white"/>
<path d="M73.6261 30.2235C73.6261 25.9805 77.1352 22.5208 81.4891 22.5208C85.843 22.5208 89.3521 25.9805 89.3521 30.2235C89.3521 34.4666 85.778 37.861 81.4891 37.861C77.2002 37.861 73.6261 34.4666 73.6261 30.2235ZM86.4278 30.2235C86.4278 27.5471 84.1534 25.3277 81.4241 25.3277C78.6948 25.3277 76.4854 27.5471 76.4854 30.2235C76.4854 32.8999 78.6948 35.1194 81.4241 35.1194C84.2184 35.1194 86.4278 32.8999 86.4278 30.2235Z" fill="white"/>
<path d="M81.4891 38.5138C76.8103 38.5138 72.9763 34.793 72.9763 30.1583C72.9763 25.5236 76.8103 21.8027 81.4891 21.8027C86.1679 21.8027 90.0019 25.5888 90.0019 30.1583C90.0019 34.793 86.1679 38.5138 81.4891 38.5138ZM81.4891 23.1736C77.5251 23.1736 74.3409 26.3069 74.3409 30.2236C74.3409 34.075 77.5901 37.2083 81.4891 37.2083C85.453 37.2083 88.7022 34.075 88.7022 30.2236C88.7022 26.3069 85.453 23.1736 81.4891 23.1736ZM81.4891 35.7722C78.3699 35.7722 75.9005 33.2916 75.9005 30.2236C75.9005 27.1555 78.4349 24.675 81.4891 24.675C84.6083 24.675 87.1426 27.1555 87.1426 30.2236C87.1426 33.2916 84.6083 35.7722 81.4891 35.7722ZM81.4891 25.9805C79.1497 25.9805 77.2002 27.8736 77.2002 30.2236C77.2002 32.5736 79.1497 34.4666 81.4891 34.4666C83.8934 34.4666 85.843 32.5736 85.843 30.2236C85.778 27.8736 83.8285 25.9805 81.4891 25.9805Z" fill="white"/>
<path d="M93.0561 30.2235C93.0561 25.9805 96.5652 22.5208 100.919 22.5208C105.273 22.5208 108.782 25.9805 108.782 30.2235C108.782 34.4666 105.273 37.861 100.919 37.861C96.6302 37.861 93.0561 34.4666 93.0561 30.2235ZM105.923 30.2235C105.923 27.5471 103.648 25.3277 100.919 25.3277C98.1898 25.3277 95.9803 27.5471 95.9803 30.2235C95.9803 32.8999 98.1898 35.1194 100.919 35.1194C103.648 35.1194 105.923 32.8999 105.923 30.2235Z" fill="white"/>
<path d="M100.919 38.5138C96.2403 38.5138 92.4062 34.793 92.4062 30.1583C92.4062 25.5236 96.2403 21.8027 100.919 21.8027C105.598 21.8027 109.432 25.5888 109.432 30.1583C109.432 34.793 105.598 38.5138 100.919 38.5138ZM100.919 23.1736C96.9551 23.1736 93.7709 26.3069 93.7709 30.2236C93.7709 34.075 97.0201 37.2083 100.919 37.2083C104.883 37.2083 108.132 34.075 108.132 30.2236C108.132 26.3069 104.883 23.1736 100.919 23.1736ZM100.919 35.7722C97.7999 35.7722 95.3305 33.2916 95.3305 30.2236C95.3305 27.1555 97.8649 24.675 100.919 24.675C104.038 24.675 106.573 27.1555 106.573 30.2236C106.573 33.2916 104.038 35.7722 100.919 35.7722ZM100.919 25.9805C98.5797 25.9805 96.6302 27.8736 96.6302 30.2236C96.6302 32.5736 98.5797 34.4666 100.919 34.4666C103.323 34.4666 105.273 32.5736 105.273 30.2236C105.273 27.8736 103.323 25.9805 100.919 25.9805Z" fill="white"/>
<path d="M112.551 30.2237C112.551 25.9807 116.06 22.5209 120.414 22.5209C122.299 22.5209 124.053 23.239 125.418 24.2834V16.8418C125.418 16.0584 126.068 15.4709 126.847 15.4709C127.627 15.4709 128.277 16.0584 128.277 16.8418V30.2237C128.277 34.4668 124.768 37.8612 120.414 37.8612C116.06 37.8612 112.551 34.4668 112.551 30.2237ZM125.353 30.2237C125.353 27.5473 123.078 25.3279 120.349 25.3279C117.62 25.3279 115.345 27.5473 115.345 30.2237C115.345 32.9001 117.62 35.1196 120.349 35.1196C123.143 35.1196 125.353 32.9001 125.353 30.2237Z" fill="white"/>
<path d="M120.349 38.514C115.67 38.514 111.836 34.7932 111.836 30.1585C111.836 25.5238 115.67 21.8029 120.349 21.8029C121.909 21.8029 123.338 22.1946 124.703 22.9779V16.7765C124.703 15.6015 125.613 14.7529 126.782 14.7529C127.952 14.7529 128.862 15.6668 128.862 16.7765V30.1585C128.862 34.7932 125.028 38.514 120.349 38.514ZM120.349 23.1738C116.385 23.1738 113.201 26.3071 113.201 30.2238C113.201 34.0752 116.45 37.2085 120.349 37.2085C124.313 37.2085 127.497 34.0752 127.497 30.2238V16.8418C127.497 16.4502 127.172 16.1238 126.717 16.1238C126.263 16.1238 125.938 16.4502 125.938 16.8418V25.6543L124.898 24.8057C123.598 23.7613 122.039 23.1738 120.349 23.1738ZM120.349 35.7724C117.23 35.7724 114.696 33.2918 114.696 30.2238C114.696 27.1557 117.23 24.6752 120.349 24.6752C123.468 24.6752 126.003 27.1557 126.003 30.2238C126.003 33.2918 123.468 35.7724 120.349 35.7724ZM120.349 25.9807C117.945 25.9807 115.995 27.8738 115.995 30.2238C115.995 32.5738 117.945 34.4668 120.349 34.4668C122.753 34.4668 124.703 32.5738 124.703 30.2238C124.703 27.8738 122.753 25.9807 120.349 25.9807Z" fill="white"/>
<path d="M151.801 36.4904V28.5918C151.801 26.7641 150.306 25.2627 148.422 25.2627C146.537 25.2627 145.043 26.6988 145.043 28.5918V36.4904C145.043 37.2738 144.393 37.8613 143.613 37.8613C142.833 37.8613 142.183 37.2738 142.183 36.4904V28.5918C142.183 26.7641 140.689 25.2627 138.804 25.2627C136.92 25.2627 135.425 26.6988 135.425 28.5918V36.4904C135.425 37.2738 134.775 37.8613 133.996 37.8613C133.216 37.8613 132.566 37.2738 132.566 36.4904V23.9571C132.566 23.1738 133.216 22.521 133.996 22.521C134.645 22.521 135.165 22.9779 135.36 23.5654C136.335 22.9779 137.505 22.521 138.804 22.521C140.689 22.521 142.443 23.4349 143.613 24.7404C144.783 23.3696 146.472 22.521 148.422 22.521C151.866 22.521 154.66 25.2627 154.66 28.6571V36.5557C154.66 37.3391 154.01 37.9266 153.231 37.9266C152.451 37.8613 151.801 37.2738 151.801 36.4904Z" fill="white"/>
<path d="M153.231 38.514C152.061 38.514 151.151 37.6001 151.151 36.4904V28.5918C151.151 27.0904 149.981 25.9807 148.422 25.9807C146.862 25.9807 145.693 27.1557 145.693 28.5918V36.4904C145.693 37.6001 144.718 38.514 143.548 38.514C142.378 38.514 141.469 37.6001 141.469 36.4904V28.5918C141.469 27.0904 140.299 25.9807 138.739 25.9807C137.18 25.9807 136.01 27.1557 136.01 28.5918V36.4904C136.01 37.6654 135.1 38.514 133.931 38.514C132.761 38.514 131.786 37.6001 131.786 36.4904V23.9571C131.786 22.8473 132.761 21.8682 133.931 21.8682C134.58 21.8682 135.165 22.1946 135.555 22.6515C136.595 22.1293 137.635 21.8682 138.739 21.8682C140.494 21.8682 142.248 22.5862 143.548 23.8265C144.848 22.5862 146.602 21.8682 148.357 21.8682C152.126 21.8682 155.245 24.9362 155.245 28.6571V36.5557C155.31 37.6654 154.4 38.514 153.231 38.514ZM148.422 24.6751C150.631 24.6751 152.451 26.4376 152.451 28.6571V36.5557C152.451 36.9473 152.776 37.2737 153.231 37.2737C153.685 37.2737 154.01 36.9473 154.01 36.5557V28.5918C154.01 25.589 151.541 23.1084 148.487 23.1084C146.862 23.1084 145.238 23.8265 144.133 25.1321L143.613 25.7196L143.093 25.1321C142.053 23.8918 140.429 23.1084 138.804 23.1084C137.765 23.1084 136.66 23.4348 135.685 24.0223L134.97 24.4793L134.71 23.6307C134.645 23.3043 134.32 23.1084 133.996 23.1084C133.541 23.1084 133.216 23.4348 133.216 23.8918V36.4251C133.216 36.8168 133.606 37.1432 133.996 37.1432C134.45 37.1432 134.775 36.8168 134.775 36.4251V28.5918C134.775 26.3723 136.595 24.6098 138.804 24.6098C141.014 24.6098 142.833 26.3723 142.833 28.5918V36.4904C142.833 36.8821 143.158 37.2084 143.613 37.2084C144.068 37.2084 144.393 36.8821 144.393 36.4904V28.5918C144.393 26.4376 146.212 24.6751 148.422 24.6751Z" fill="white"/>
<path d="M158.624 30.2235C158.624 25.9805 162.133 22.5208 166.487 22.5208C170.841 22.5208 174.35 25.9805 174.35 30.2235C174.35 34.4666 170.776 37.861 166.422 37.861C162.133 37.861 158.624 34.4666 158.624 30.2235ZM171.426 30.2235C171.426 27.5471 169.152 25.3277 166.422 25.3277C163.693 25.3277 161.484 27.5471 161.484 30.2235C161.484 32.8999 163.693 35.1194 166.422 35.1194C169.152 35.1194 171.426 32.8999 171.426 30.2235Z" fill="white"/>
<path d="M166.422 38.5138C161.743 38.5138 157.909 34.793 157.909 30.1583C157.909 25.5236 161.743 21.8027 166.422 21.8027C171.101 21.8027 174.935 25.5888 174.935 30.1583C175 34.793 171.166 38.5138 166.422 38.5138ZM166.422 23.1736C162.458 23.1736 159.274 26.3069 159.274 30.2236C159.274 34.075 162.523 37.2083 166.422 37.2083C170.386 37.2083 173.635 34.075 173.635 30.2236C173.635 26.3069 170.451 23.1736 166.422 23.1736ZM166.422 35.7722C163.303 35.7722 160.834 33.2916 160.834 30.2236C160.834 27.1555 163.368 24.675 166.422 24.675C169.541 24.675 172.076 27.1555 172.076 30.2236C172.076 33.2916 169.541 35.7722 166.422 35.7722ZM166.422 25.9805C164.083 25.9805 162.133 27.8736 162.133 30.2236C162.133 32.5736 164.083 34.4666 166.422 34.4666C168.827 34.4666 170.776 32.5736 170.776 30.2236C170.776 27.8736 168.827 25.9805 166.422 25.9805Z" fill="white"/>
</svg>
