<svg width="79" height="79" viewBox="0 0 79 79" fill="none" xmlns="http://www.w3.org/2000/svg">
<g clip-path="url(#clip0_852_2724)">
<path fill-rule="evenodd" clip-rule="evenodd" d="M45.3694 37.9522C46.2181 35.9766 46.5755 34.2459 46.7653 32.8974C48.5297 19.9936 38.2558 12.9222 27.3342 9.67933C24.4084 8.80884 19.6288 8.46377 16.0218 9.77258C13.4868 10.6912 11.5213 12.4065 11.03 15.238C10.4828 18.3227 11.9904 21.5456 14.4249 24.4529C17.9426 28.6606 23.381 32.2214 26.7982 33.7676C30.7403 35.5499 37.1168 37.6427 43.5939 38.8691C42.5106 40.9279 40.869 43.2068 38.3229 45.5594C37.195 46.6091 35.6427 47.5065 33.8783 48.2282C32.5494 45.6477 30.651 43.2148 28.183 41.0683C26.1059 39.2667 21.0359 36.3034 16.5466 35.3939C13.3416 34.7472 10.4381 35.1637 8.89705 37.4786C6.98744 40.3563 7.65743 43.0384 9.52237 45.2819C12.1467 48.4422 17.2278 50.6878 20.2319 51.2417C23.7272 51.8842 28.9088 51.2881 33.2529 49.7442C37.2843 58.6998 34.3473 69.2338 24.8998 75.0274C24.6206 75.2028 24.5313 75.5769 24.6988 75.8628C24.8774 76.1486 25.2571 76.238 25.5363 76.0626C35.531 69.9307 38.6578 58.7857 34.4031 49.3042C36.2792 48.5317 37.9431 47.5717 39.1492 46.4511C41.9522 43.8577 43.7166 41.346 44.8445 39.0951C46.0617 39.3042 47.279 39.4796 48.4851 39.6138C53.9012 40.2197 58.9823 39.9692 62.3213 38.2266C70.0379 34.2009 72.1821 26.2257 70.7192 18.4407C69.2674 10.7307 64.2757 3.23603 57.8098 0.0621713C57.5083 -0.085572 57.1398 0.0390565 56.9946 0.340127C56.8494 0.641309 56.9723 1.0057 57.2738 1.15333C63.427 4.17341 68.1507 11.3284 69.5242 18.6648C70.8866 25.9263 68.9547 33.394 61.763 37.149C58.5803 38.803 53.7673 38.9811 48.6191 38.406C47.5471 38.2863 46.4638 38.133 45.3694 37.9522ZM32.728 48.6671C31.4661 46.2615 29.6906 43.9913 27.3789 41.9859C25.4023 40.2707 20.5892 37.4512 16.3009 36.5851C13.6431 36.0481 11.1863 36.2287 9.91323 38.1511C8.34981 40.4958 8.94172 42.678 10.4605 44.506C12.8949 47.4527 17.6522 49.5299 20.4552 50.0463C23.7384 50.6519 28.6296 50.1077 32.728 48.6671ZM44.141 37.7356C45.012 35.7754 45.3694 34.0599 45.5593 32.7327C47.2343 20.4981 37.3401 13.9191 26.9881 10.8444C24.2632 10.0324 19.8075 9.6943 16.435 10.9151C14.3244 11.683 12.6381 13.082 12.2249 15.4487C11.7335 18.2127 13.1741 21.0676 15.3517 23.6727C18.7466 27.7335 24.0064 31.1681 27.3007 32.6604C31.2428 34.4429 37.6528 36.54 44.141 37.7356Z" fill="black"/>
<path fill-rule="evenodd" clip-rule="evenodd" d="M25.6615 75.2031C25.8849 74.6246 26.5214 72.9573 26.6107 72.7027C26.8564 71.988 26.8788 71.5949 26.8564 71.1929C26.8341 70.8702 26.7671 70.5385 26.8006 69.931C26.8229 69.596 26.5549 69.3112 26.2199 69.2945C25.8849 69.2777 25.6057 69.5368 25.5833 69.8718C25.561 70.4224 25.5945 70.7719 25.628 71.0779C25.6615 71.4308 25.6727 71.7055 25.4605 72.3074C25.36 72.6011 24.623 74.1746 24.4331 74.9563C24.3326 75.3639 24.3884 75.6699 24.4666 75.8039C24.5783 75.996 24.7794 76.1769 25.092 76.3008C25.4941 76.4583 26.1641 76.5499 26.9123 76.6694C27.6158 76.7799 28.4087 76.9206 29.101 77.2177C29.6817 77.4712 30.1843 77.8375 30.43 78.4472C30.5528 78.7588 30.899 78.9129 31.2117 78.79C31.5244 78.6672 31.6807 78.3132 31.5578 78.0016C31.2005 77.0792 30.4635 76.4862 29.5813 76.1032C28.7996 75.7648 27.9062 75.594 27.1022 75.4689C26.622 75.3918 26.1752 75.3326 25.829 75.2534C25.7732 75.2411 25.7174 75.2221 25.6615 75.2031Z" fill="black"/>
</g>
<defs>
<clipPath id="clip0_852_2724">
<rect width="79" height="79" fill="white"/>
</clipPath>
</defs>
</svg>
