<svg width="39" height="39" viewBox="0 0 39 39" fill="none" xmlns="http://www.w3.org/2000/svg">
<path d="M16.9 3.3C16.8333 2.56666 17.9667 1.86666 20.3 1.2C22.7 0.466665 24.6667 0.099999 26.2 0.099999C26.9333 0.099999 27.2667 0.233331 27.2 0.499994L19.6 16.1C19.5333 16.3 19.3333 16.4 19 16.4C18.7333 16.4 18.6 16.3 18.6 16.1L16.9 3.3ZM3.6 15.5C2.93333 15.4333 2.6 14.3 2.6 12.1C2.6 10.4333 2.76667 8.76666 3.1 7.1C3.5 5.36666 3.83333 4.63333 4.1 4.9L16.7 17C16.8333 17.0667 16.8333 17.2667 16.7 17.6C16.6333 17.8667 16.5333 17.9667 16.4 17.9L3.6 15.5ZM21 18.6C20.8667 18.6 20.7667 18.4667 20.7 18.2C20.6333 17.9333 20.6667 17.7667 20.8 17.7L32.4 12.1C33 11.8333 33.8333 12.4333 34.9 13.9C36.0333 15.3667 37 16.9333 37.8 18.6C38.6 20.2 38.8 21 38.4 21L21 18.6ZM11.2 31.8C11.1333 32.0667 10.8 32.2 10.2 32.2C9.33333 32.2 8.13333 31.9 6.6 31.3C5.06667 30.7 3.73333 30.0667 2.6 29.4C1.46667 28.6667 1.03333 28.2333 1.3 28.1L16.6 19.9L16.8 19.8C17 19.8 17.1667 19.9 17.3 20.1C17.5 20.2333 17.5667 20.3667 17.5 20.5L11.2 31.8ZM19.2 20.9C19.1333 20.7667 19.2333 20.6 19.5 20.4C19.7667 20.1333 19.9667 20.0667 20.1 20.2L29 29.7C29.4 30.1 29.0667 31.0667 28 32.6C27 34.0667 25.8333 35.4333 24.5 36.7C23.1667 37.9 22.4667 38.3 22.4 37.9L19.2 20.9Z" fill="black"/>
</svg>
